<svg width="105" height="24" viewBox="0 0 105 24" fill="none" xmlns="http://www.w3.org/2000/svg">
<path d="M14.944 18.0618H11.9759L10.3511 12.9466H4.69864L3.14917 18.0618H0.261719L5.86074 0.646557H9.31878L14.945 18.0618H14.944ZM9.86004 10.8005L8.39014 6.25271C8.2352 5.78789 7.9431 4.69388 7.51386 2.97172H7.46151C7.28981 3.71293 7.01447 4.80694 6.63443 6.25271L5.1907 10.8005H9.86004ZM29.3425 11.6285C29.3425 13.7642 28.7667 15.4518 27.613 16.6914C26.5807 17.7948 25.2992 18.3455 23.7686 18.3455C22.1165 18.3455 20.9293 17.7519 20.2069 16.5636H20.1546V23.178H17.3687V9.63839C17.3687 8.29522 17.3331 6.9175 17.265 5.50418H19.7149L19.8719 7.49434H19.9243C20.8529 5.99517 22.2631 5.24664 24.1549 5.24664C25.6343 5.24664 26.8696 5.83081 27.858 7.00229C28.8484 8.17482 29.3425 9.71691 29.3425 11.6285V11.6285ZM26.5032 11.7311C26.5032 10.5084 26.2289 9.50125 25.6772 8.7077C25.0752 7.88064 24.2659 7.46712 23.2525 7.46712C22.5646 7.46712 21.9396 7.69744 21.3816 8.15179C20.8225 8.60929 20.4571 9.20707 20.2855 9.94827C20.1996 10.2938 20.1556 10.5764 20.1556 10.7994V12.8932C20.1556 13.8061 20.4362 14.5766 20.9953 15.2069C21.5543 15.835 22.2809 16.1491 23.175 16.1491C24.224 16.1491 25.0417 15.7439 25.6248 14.9347C26.2111 14.1254 26.5043 13.0576 26.5043 11.7311H26.5032ZM43.7662 11.6285C43.7662 13.7642 43.1903 15.4518 42.0356 16.6914C41.0043 17.7948 39.7218 18.3455 38.1923 18.3455C36.5402 18.3455 35.354 17.7519 34.6327 16.5636H34.5803V23.178H31.7934V9.63839C31.7934 8.29522 31.7588 6.9175 31.6908 5.50418H34.1406L34.2966 7.49434H34.349C35.2765 5.99517 36.6868 5.24664 38.5807 5.24664C40.059 5.24664 41.2933 5.83081 42.2837 7.00229C43.271 8.17482 43.7662 9.71691 43.7662 11.6285V11.6285ZM40.9279 11.7311C40.9279 10.5084 40.6515 9.50125 40.1008 8.7077C39.4978 7.88064 38.6917 7.46712 37.6761 7.46712C36.9872 7.46712 36.3643 7.69744 35.8042 8.15179C35.2451 8.60929 34.8808 9.20707 34.7091 9.94827C34.6254 10.2938 34.5803 10.5764 34.5803 10.7994V12.8932C34.5803 13.8061 34.8599 14.5766 35.4168 15.2069C35.9759 15.835 36.7025 16.1491 37.5987 16.1491C38.6487 16.1491 39.4653 15.7439 40.0485 14.9347C40.6348 14.1254 40.9279 13.0576 40.9279 11.7311V11.7311ZM59.8932 13.178C59.8932 14.6593 59.3802 15.8643 58.3479 16.795C57.2151 17.8115 55.6374 18.3193 53.6105 18.3193C51.7396 18.3193 50.2394 17.9581 49.1035 17.2347L49.7494 14.9095C50.9722 15.6497 52.3144 16.0213 53.777 16.0213C54.826 16.0213 55.6426 15.7837 56.23 15.3095C56.8142 14.8363 57.1052 14.1997 57.1052 13.4072C57.1052 12.7006 56.8644 12.1049 56.3828 11.6223C55.9033 11.1396 55.1024 10.6905 53.9832 10.276C50.9387 9.13797 49.4175 7.47235 49.4175 5.28224C49.4175 3.85007 49.9504 2.67545 51.0183 1.76255C52.082 0.848609 53.5006 0.391113 55.2762 0.391113C56.8581 0.391113 58.1731 0.667495 59.2232 1.21817L58.5259 3.49308C57.546 2.95916 56.4373 2.6922 55.1966 2.6922C54.2177 2.6922 53.4514 2.93404 52.9028 3.41561C52.439 3.84589 52.2055 4.37143 52.2055 4.99224C52.2055 5.6811 52.4715 6.25062 53.0043 6.69765C53.4681 7.11117 54.3109 7.5582 55.5348 8.04187C57.0319 8.64488 58.1302 9.35049 58.8368 10.1587C59.5414 10.9648 59.8932 11.974 59.8932 13.178V13.178ZM69.1052 7.59798H66.0345V13.6951C66.0345 15.2456 66.5748 16.0203 67.6594 16.0203C68.1577 16.0203 68.5702 15.9774 68.8969 15.8905L68.9743 18.0094C68.4257 18.2146 67.7033 18.3182 66.8072 18.3182C65.7079 18.3182 64.8473 17.9822 64.2265 17.3111C63.6088 16.638 63.2978 15.5105 63.2978 13.9255V7.59589H61.4678V5.50208H63.2978V3.20204L66.0345 2.37499V5.50208H69.1052V7.59798ZM82.9625 11.6798C82.9625 13.6093 82.4107 15.1943 81.3104 16.4338C80.1556 17.71 78.624 18.3455 76.7143 18.3455C74.8749 18.3455 73.4102 17.7341 72.3172 16.5123C71.2252 15.2896 70.6788 13.7475 70.6788 11.8871C70.6788 9.94199 71.241 8.34861 72.3685 7.10908C73.4929 5.86745 75.011 5.24769 76.9216 5.24769C78.7622 5.24769 80.2425 5.85908 81.3607 7.08291C82.4285 8.26904 82.9625 9.80171 82.9625 11.6788V11.6798ZM80.0708 11.7699C80.0708 10.612 79.8237 9.6185 79.3233 8.7904C78.7391 7.78747 77.9047 7.2881 76.8222 7.2881C75.702 7.2881 74.8518 7.78852 74.2676 8.7904C73.7672 9.61955 73.5201 10.6288 73.5201 11.8222C73.5201 12.9801 73.7672 13.9736 74.2676 14.8007C74.8696 15.8025 75.7124 16.303 76.797 16.303C77.8607 16.303 78.6962 15.7931 79.2992 14.7745C79.8122 13.9307 80.0708 12.9267 80.0708 11.7699ZM92.0185 7.95811C91.7431 7.90682 91.4489 7.88064 91.1401 7.88064C90.1602 7.88064 89.4022 8.25125 88.8682 8.99245C88.4055 9.64677 88.172 10.4738 88.172 11.4736V18.0618H85.3872L85.4133 9.45937C85.4133 8.01151 85.3788 6.69346 85.3087 5.50523H87.7365L87.8381 7.90786H87.9155C88.2087 7.08291 88.6735 6.41812 89.308 5.91875C89.9288 5.47068 90.5999 5.24664 91.3223 5.24664C91.5798 5.24664 91.8122 5.26444 92.0185 5.29689V7.95916V7.95811ZM104.48 11.1889C104.48 11.6893 104.447 12.1101 104.378 12.4546H96.0188C96.0513 13.6951 96.4554 14.6436 97.2322 15.2979C97.9358 15.8832 98.8466 16.1763 99.9658 16.1763C101.203 16.1763 102.332 15.9784 103.347 15.5816L103.784 17.5184C102.598 18.0366 101.197 18.2942 99.5805 18.2942C97.6353 18.2942 96.1089 17.7215 94.9981 16.5773C93.8904 15.4309 93.3345 13.894 93.3345 11.9646C93.3345 10.0718 93.8506 8.49413 94.8839 7.2368C95.9665 5.89467 97.4291 5.22256 99.2696 5.22256C101.077 5.22256 102.445 5.89467 103.374 7.2368C104.11 8.30359 104.48 9.62269 104.48 11.1889V11.1889ZM101.823 10.4654C101.841 9.63839 101.66 8.92336 101.282 8.32034C100.8 7.54459 100.059 7.15724 99.0623 7.15724C98.1514 7.15724 97.4092 7.53517 96.8428 8.29417C96.38 8.89719 96.1036 9.62164 96.0188 10.4644H101.823V10.4654Z" fill="#FFFFFE"/>
</svg>
