<svg width="104" height="10" viewBox="0 0 104 10" fill="none" xmlns="http://www.w3.org/2000/svg">
<path d="M8.02392 4.93256C8.02392 6.47255 7.55532 7.63252 6.61813 8.41141C5.7491 9.12958 4.51584 9.48972 2.9173 9.48972C2.12495 9.48972 1.44761 9.45517 0.879974 9.38712V0.971084C1.62014 0.853831 2.41782 0.793111 3.27939 0.793111C4.80233 0.793111 5.94932 1.11974 6.7225 1.77092C7.5894 2.50794 8.02392 3.56112 8.02392 4.93256ZM6.55423 4.97129C6.55423 3.97255 6.28692 3.20622 5.7491 2.6723C5.21235 2.14047 4.42852 1.87351 3.39548 1.87351C2.9567 1.87351 2.58289 1.90178 2.27298 1.9625V8.36011C2.44444 8.38628 2.75861 8.3978 3.21443 8.3978C4.28048 8.3978 5.10372 8.10676 5.68307 7.52259C6.26243 6.93842 6.5553 6.08834 6.5553 4.97025L6.55423 4.97129ZM15.8132 6.27783C15.8132 7.22632 15.5374 8.00417 14.9879 8.61346C14.4107 9.2416 13.646 9.55358 12.6918 9.55358C11.7716 9.55358 11.0389 9.25417 10.4926 8.6522C9.94729 8.05128 9.67465 7.29332 9.67465 6.38042C9.67465 5.4246 9.95581 4.64047 10.5192 4.03222C11.0836 3.42397 11.8408 3.11933 12.7951 3.11933C13.7152 3.11933 14.4543 3.41874 15.0145 4.01966C15.5459 4.60278 15.8132 5.35655 15.8132 6.27783ZM14.3681 6.32284C14.3681 5.75333 14.2434 5.26547 13.9953 4.85823C13.7024 4.36618 13.286 4.12016 12.745 4.12016C12.1848 4.12016 11.7599 4.36618 11.467 4.85823C11.2178 5.26547 11.0943 5.76066 11.0943 6.34692C11.0943 6.91644 11.2189 7.40429 11.467 7.81258C11.7695 8.30463 12.1891 8.5496 12.7312 8.5496C13.2637 8.5496 13.6811 8.29939 13.9815 7.79897C14.2392 7.3844 14.3681 6.89236 14.3681 6.32284ZM26.2565 3.24495L24.2969 9.41329H23.019L22.2074 6.73427C22.0019 6.06635 21.8347 5.40157 21.7037 4.74202H21.6781C21.5578 5.41937 21.3906 6.0831 21.1744 6.73532L20.3118 9.41329H19.021L17.1775 3.246H18.6088L19.3171 6.17837C19.4885 6.87142 19.6302 7.53306 19.743 8.15806H19.7675C19.8719 7.64298 20.0434 6.98553 20.2851 6.19198L21.1744 3.246H22.3097L23.1617 6.12707C23.3683 6.83059 23.5355 7.50689 23.6643 8.15806H23.7027C23.7975 7.52364 23.9402 6.84734 24.1287 6.12707L24.8891 3.246H26.2565V3.24495ZM33.4793 9.41329H32.0863V5.88C32.0863 4.79123 31.6667 4.24684 30.8232 4.24684C30.41 4.24684 30.0766 4.39654 29.8168 4.69596C29.5612 4.99537 29.4302 5.34922 29.4302 5.75333V9.41225H28.0372V5.00794C28.0372 4.46564 28.0201 3.87728 27.9861 3.24181H29.2108L29.2758 4.20601H29.3141C29.477 3.90659 29.7188 3.65953 30.0362 3.46271C30.4142 3.23239 30.837 3.11514 31.2992 3.11514C31.885 3.11514 32.3706 3.30149 32.7583 3.67418C33.2386 4.13063 33.4793 4.81216 33.4793 5.71773V9.41329ZM37.3217 9.41329H35.9298V0.414133H37.3217V9.41329ZM45.5243 6.27783C45.5243 7.22632 45.2485 8.00417 44.6989 8.61346C44.1217 9.2416 43.356 9.55358 42.4028 9.55358C41.4816 9.55358 40.7489 9.25417 40.2036 8.6522C39.6583 8.05128 39.3857 7.29332 39.3857 6.38042C39.3857 5.4246 39.6668 4.64047 40.2302 4.03222C40.7947 3.42397 41.5508 3.11933 42.505 3.11933C43.4263 3.11933 44.1643 3.41874 44.7255 4.01966C45.257 4.60278 45.5243 5.35655 45.5243 6.27783ZM44.078 6.32284C44.078 5.75333 43.9524 5.26547 43.7042 4.85823C43.4124 4.36618 42.996 4.12016 42.4561 4.12016C41.8948 4.12016 41.4688 4.36618 41.1781 4.85823C40.9278 5.26547 40.8053 5.76066 40.8053 6.34692C40.8053 6.91644 40.9299 7.40429 41.1781 7.81258C41.4795 8.30463 41.9001 8.5496 42.4422 8.5496C42.9747 8.5496 43.39 8.29939 43.6904 7.79897C43.9502 7.3844 44.078 6.89236 44.078 6.32284ZM52.2667 9.41329H51.0154L50.9121 8.7035H50.8737C50.4456 9.26882 49.8354 9.55358 49.043 9.55358C48.4509 9.55358 47.9727 9.36618 47.6127 8.99453C47.2858 8.65743 47.1228 8.23762 47.1228 7.73825C47.1228 6.98448 47.4413 6.41078 48.0835 6.01296C48.7235 5.61514 49.6256 5.41937 50.7853 5.42879V5.31363C50.7853 4.50123 50.3529 4.09504 49.4839 4.09504C48.8662 4.09504 48.3209 4.24788 47.8502 4.55149L47.5669 3.65115C48.1495 3.2973 48.8683 3.11933 49.7171 3.11933C51.3551 3.11933 52.1773 3.96941 52.1773 5.67062V7.9424C52.1773 8.55902 52.2071 9.05002 52.2667 9.41329ZM50.8205 7.29332V6.34169C49.2837 6.31551 48.5148 6.73113 48.5148 7.58541C48.5148 7.90785 48.6032 8.14759 48.7821 8.30881C48.9621 8.47004 49.191 8.5496 49.4637 8.5496C49.7693 8.5496 50.0547 8.45433 50.3157 8.26484C50.5766 8.07326 50.7385 7.83143 50.7981 7.53411C50.812 7.46711 50.8194 7.38649 50.8194 7.29332H50.8205ZM60.1838 9.41329H58.9474L58.8824 8.42293H58.843C58.449 9.17669 57.7759 9.55358 56.8302 9.55358C56.0751 9.55358 55.4468 9.26149 54.9484 8.67837C54.45 8.0942 54.2007 7.33624 54.2007 6.4066C54.2007 5.40785 54.4713 4.59964 55.0133 3.98197C55.5384 3.40618 56.1816 3.11828 56.9474 3.11828C57.7887 3.11828 58.3776 3.39675 58.7131 3.9558H58.7397V0.413086H60.1349V7.75082C60.1349 8.35174 60.1498 8.9045 60.1838 9.41225V9.41329ZM58.7397 6.81175V5.78369C58.7397 5.60572 58.7259 5.46124 58.7014 5.35132C58.6226 5.02154 58.4543 4.74412 58.1976 4.52113C57.9378 4.29709 57.6258 4.18402 57.2658 4.18402C56.7461 4.18402 56.3392 4.38712 56.04 4.79437C55.7428 5.20161 55.5927 5.72087 55.5927 6.3553C55.5927 6.96459 55.7354 7.45978 56.0208 7.84085C56.3233 8.246 56.7301 8.4491 57.2392 8.4491C57.6971 8.4491 58.0613 8.28055 58.3393 7.94135C58.6077 7.62833 58.7397 7.25144 58.7397 6.81175ZM72.0989 6.27783C72.0989 7.22632 71.8242 8.00417 71.2736 8.61346C70.6964 9.2416 69.9338 9.55358 68.9775 9.55358C68.0584 9.55358 67.3267 9.25417 66.7783 8.6522C66.234 8.05128 65.9614 7.29332 65.9614 6.38042C65.9614 5.4246 66.2415 4.64047 66.8049 4.03222C67.3693 3.42397 68.1265 3.11933 69.0829 3.11933C70.0009 3.11933 70.7411 3.41874 71.3002 4.01966C71.8327 4.60278 72.0989 5.35655 72.0989 6.27783ZM70.6548 6.32284C70.6548 5.75333 70.5302 5.26547 70.2821 4.85823C69.9881 4.36618 69.5728 4.12016 69.0307 4.12016C68.4727 4.12016 68.0467 4.36618 67.7527 4.85823C67.5035 5.26547 67.38 5.76066 67.38 6.34692C67.38 6.91644 67.5046 7.40429 67.7527 7.81258C68.0552 8.30463 68.4748 8.5496 69.0169 8.5496C69.5494 8.5496 69.9679 8.29939 70.2682 7.79897C70.5249 7.3844 70.6548 6.89236 70.6548 6.32284ZM79.5901 9.41329H78.1981V5.88C78.1981 4.79123 77.7785 4.24684 76.934 4.24684C76.5208 4.24684 76.1864 4.39654 75.9286 4.69596C75.6709 4.99537 75.542 5.34922 75.542 5.75333V9.41225H74.1469V5.00794C74.1469 4.46564 74.132 3.87728 74.0979 3.24181H75.3216L75.3866 4.20601H75.4249C75.5889 3.90659 75.8296 3.65953 76.147 3.46271C76.5261 3.23239 76.9468 3.11514 77.4111 3.11514C77.9947 3.11514 78.4814 3.30149 78.868 3.67418C79.3504 4.13063 79.5901 4.81216 79.5901 5.71773V9.41329ZM88.9662 4.27196H87.4326V7.26819C87.4326 8.03034 87.7053 8.41141 88.2442 8.41141C88.4944 8.41141 88.7021 8.39047 88.8651 8.34755L88.9013 9.38712C88.6265 9.48972 88.2644 9.53997 87.8192 9.53997C87.2686 9.53997 86.8405 9.37561 86.5306 9.04583C86.2196 8.71606 86.0652 8.1612 86.0652 7.38231V4.27196H85.1493V3.24495H86.0652V2.1143L87.4305 1.7081V3.24286H88.9652V4.27196H88.9662ZM96.3413 9.41329H94.9472V5.90618C94.9472 4.80065 94.5276 4.24684 93.6863 4.24684C93.0398 4.24684 92.5989 4.56719 92.3561 5.20894C92.3156 5.34399 92.2922 5.50835 92.2922 5.70203V9.41225H90.8992V0.414133H92.2911V4.13168H92.3177C92.7565 3.45538 93.3859 3.11723 94.2006 3.11723C94.7768 3.11723 95.255 3.30358 95.6331 3.67628C96.1059 4.1411 96.3423 4.83206 96.3423 5.74495V9.41329H96.3413ZM103.951 6.03704C103.951 6.28306 103.931 6.49035 103.898 6.6589H99.7205C99.7386 7.26819 99.9377 7.73302 100.325 8.05546C100.679 8.34336 101.135 8.48679 101.693 8.48679C102.311 8.48679 102.875 8.39047 103.383 8.1947L103.6 9.14738C103.006 9.40178 102.307 9.52845 101.498 9.52845C100.527 9.52845 99.762 9.24788 99.2093 8.68465C98.6534 8.12142 98.3786 7.3666 98.3786 6.41916C98.3786 5.48951 98.6353 4.7148 99.1528 4.09713C99.6917 3.43758 100.422 3.10676 101.344 3.10676C102.245 3.10676 102.929 3.43758 103.391 4.09713C103.765 4.62058 103.951 5.26757 103.951 6.03704ZM102.62 5.68319C102.631 5.2749 102.54 4.92523 102.351 4.62896C102.109 4.24789 101.741 4.05735 101.242 4.05735C100.788 4.05735 100.417 4.2437 100.134 4.61639C99.9026 4.91371 99.7652 5.26757 99.7205 5.68319H102.62Z" fill="#FFFFFE"/>
</svg>
