<svg width="103" height="10" viewBox="0 0 103 10" fill="none" xmlns="http://www.w3.org/2000/svg">
<path d="M7.93887 4.93256C7.93887 6.47255 7.47822 7.63252 6.55692 8.41141C5.70261 9.12958 4.49026 9.48972 2.91881 9.48972C2.13989 9.48972 1.47403 9.45517 0.916016 9.38712V0.971084C1.64364 0.853831 2.42779 0.793111 3.27477 0.793111C4.77189 0.793111 5.89944 1.11974 6.65952 1.77092C7.51172 2.50794 7.93887 3.56112 7.93887 4.93256ZM6.4941 4.97129C6.4941 3.97255 6.23132 3.20622 5.70261 2.6723C5.17496 2.14047 4.40441 1.87351 3.38888 1.87351C2.95754 1.87351 2.59007 1.90178 2.28541 1.9625V8.36011C2.45397 8.38628 2.76281 8.3978 3.2109 8.3978C4.25889 8.3978 5.06817 8.10676 5.6377 7.52259C6.20724 6.93842 6.49515 6.08834 6.49515 4.97025L6.4941 4.97129ZM15.5962 6.27783C15.5962 7.22632 15.325 8.00417 14.7848 8.61346C14.2174 9.2416 13.4657 9.55358 12.5276 9.55358C11.623 9.55358 10.9028 9.25417 10.3657 8.6522C9.82964 8.05128 9.56163 7.29332 9.56163 6.38042C9.56163 5.4246 9.83802 4.64047 10.3918 4.03222C10.9467 3.42397 11.6911 3.11933 12.6292 3.11933C13.5337 3.11933 14.2603 3.41874 14.811 4.01966C15.3334 4.60278 15.5962 5.35655 15.5962 6.27783V6.27783ZM14.1755 6.32284C14.1755 5.75333 14.053 5.26547 13.8091 4.85823C13.5211 4.36618 13.1118 4.12016 12.5799 4.12016C12.0293 4.12016 11.6115 4.36618 11.3236 4.85823C11.0786 5.26547 10.9572 5.76066 10.9572 6.34692C10.9572 6.91644 11.0797 7.40429 11.3236 7.81258C11.621 8.30463 12.0334 8.5496 12.5663 8.5496C13.0898 8.5496 13.5002 8.29939 13.7954 7.79897C14.0488 7.3844 14.1755 6.89236 14.1755 6.32284V6.32284ZM25.8624 3.24495L23.9361 9.41329H22.6798L21.882 6.73427C21.6799 6.06635 21.5156 5.40157 21.3868 4.74202H21.3617C21.2434 5.41937 21.079 6.0831 20.8665 6.73532L20.0184 9.41329H18.7496L16.9373 3.246H18.3444L19.0406 6.17837C19.2092 6.87142 19.3484 7.53306 19.4594 8.15806H19.4835C19.5861 7.64298 19.7546 6.98553 19.9923 6.19198L20.8665 3.246H21.9825L22.82 6.12707C23.0232 6.83059 23.1875 7.50689 23.3142 8.15806H23.3519C23.4451 7.52364 23.5854 6.84734 23.7707 6.12707L24.5182 3.246H25.8624V3.24495V3.24495ZM32.9628 9.41329H31.5934V5.88C31.5934 4.79123 31.1809 4.24684 30.3517 4.24684C29.9455 4.24684 29.6178 4.39654 29.3624 4.69596C29.1111 4.99537 28.9823 5.34922 28.9823 5.75333V9.41225H27.6129V5.00793C27.6129 4.46564 27.5962 3.87728 27.5627 3.24181H28.7667L28.8305 4.20601H28.8682C29.0284 3.90659 29.266 3.65953 29.578 3.46271C29.9497 3.23239 30.3653 3.11514 30.8197 3.11514C31.3955 3.11514 31.8729 3.30149 32.254 3.67418C32.7262 4.13063 32.9628 4.81216 32.9628 5.71773V9.41329V9.41329ZM36.7401 9.41329H35.3718V0.414133H36.7401V9.41329ZM44.8036 6.27783C44.8036 7.22632 44.5325 8.00417 43.9923 8.61346C43.4248 9.2416 42.6721 9.55358 41.7351 9.55358C40.8295 9.55358 40.1092 9.25417 39.5731 8.6522C39.0371 8.05128 38.7691 7.29332 38.7691 6.38042C38.7691 5.4246 39.0455 4.64047 39.5993 4.03222C40.1542 3.42397 40.8975 3.11933 41.8356 3.11933C42.7412 3.11933 43.4667 3.41874 44.0184 4.01966C44.5409 4.60278 44.8036 5.35655 44.8036 6.27783ZM43.3819 6.32284C43.3819 5.75333 43.2584 5.26547 43.0144 4.85823C42.7276 4.36618 42.3182 4.12016 41.7874 4.12016C41.2357 4.12016 40.8169 4.36618 40.5311 4.85823C40.2851 5.26547 40.1647 5.76066 40.1647 6.34692C40.1647 6.91644 40.2872 7.40429 40.5311 7.81258C40.8274 8.30463 41.2409 8.5496 41.7738 8.5496C42.2973 8.5496 42.7056 8.29939 43.0008 7.79897C43.2563 7.3844 43.3819 6.89236 43.3819 6.32284V6.32284ZM51.4318 9.41329H50.2017L50.1001 8.7035H50.0624C49.6415 9.26882 49.0416 9.55358 48.2627 9.55358C47.6806 9.55358 47.2106 9.36618 46.8567 8.99453C46.5353 8.65743 46.3751 8.23762 46.3751 7.73825C46.3751 6.98448 46.6881 6.41078 47.3194 6.01296C47.9486 5.61514 48.8354 5.41937 49.9755 5.42879V5.31363C49.9755 4.50123 49.5505 4.09504 48.6962 4.09504C48.0889 4.09504 47.5529 4.24788 47.0902 4.55149L46.8117 3.65115C47.3843 3.2973 48.091 3.11933 48.9254 3.11933C50.5356 3.11933 51.3439 3.96941 51.3439 5.67062V7.9424C51.3439 8.55902 51.3732 9.05002 51.4318 9.41329V9.41329ZM50.0101 7.29332V6.34169C48.4993 6.31551 47.7434 6.73113 47.7434 7.58541C47.7434 7.90785 47.8303 8.14759 48.0062 8.30881C48.1832 8.47004 48.4083 8.5496 48.6763 8.5496C48.9767 8.5496 49.2573 8.45433 49.5138 8.26484C49.7703 8.07326 49.9294 7.83143 49.9881 7.53411C50.0017 7.46711 50.009 7.38649 50.009 7.29332H50.0101ZM59.2147 9.41329H57.9992L57.9354 8.42293H57.8966C57.5093 9.1767 56.8476 9.55358 55.9179 9.55358C55.1757 9.55358 54.558 9.26149 54.068 8.67837C53.578 8.0942 53.333 7.33624 53.333 6.4066C53.333 5.40785 53.599 4.59964 54.1319 3.98197C54.648 3.40618 55.2803 3.11828 56.0331 3.11828C56.8602 3.11828 57.4391 3.39675 57.7689 3.9558H57.7951V0.413086H59.1666V7.75082C59.1666 8.35174 59.1812 8.9045 59.2147 9.41225V9.41329ZM57.7951 6.81175V5.78369C57.7951 5.60572 57.7815 5.46124 57.7574 5.35132C57.6799 5.02154 57.5145 4.74412 57.2622 4.52113C57.0067 4.29709 56.7 4.18402 56.3461 4.18402C55.8352 4.18402 55.4353 4.38712 55.1411 4.79437C54.849 5.20161 54.7014 5.72087 54.7014 6.3553C54.7014 6.96459 54.8417 7.45978 55.1223 7.84085C55.4196 8.246 55.8195 8.4491 56.32 8.4491C56.7701 8.4491 57.1282 8.28055 57.4014 7.94135C57.6653 7.62833 57.7951 7.25144 57.7951 6.81175V6.81175ZM70.9279 6.27783C70.9279 7.22632 70.6578 8.00417 70.1165 8.61346C69.5491 9.2416 68.7995 9.55358 67.8593 9.55358C66.9558 9.55358 66.2366 9.25417 65.6974 8.6522C65.1624 8.05128 64.8944 7.29332 64.8944 6.38042C64.8944 5.4246 65.1697 4.64047 65.7235 4.03222C66.2784 3.42397 67.0228 3.11933 67.963 3.11933C68.8654 3.11933 69.593 3.41874 70.1427 4.01966C70.6661 4.60278 70.9279 5.35655 70.9279 6.27783V6.27783ZM69.5082 6.32284C69.5082 5.75333 69.3857 5.26547 69.1418 4.85823C68.8528 4.36618 68.4445 4.12016 67.9116 4.12016C67.3631 4.12016 66.9443 4.36618 66.6553 4.85823C66.4103 5.26547 66.2889 5.76066 66.2889 6.34692C66.2889 6.91644 66.4114 7.40429 66.6553 7.81258C66.9527 8.30463 67.3651 8.5496 67.898 8.5496C68.4215 8.5496 68.833 8.29939 69.1282 7.79897C69.3805 7.3844 69.5082 6.89236 69.5082 6.32284V6.32284ZM78.292 9.41329H76.9237V5.88C76.9237 4.79123 76.5112 4.24684 75.681 4.24684C75.2748 4.24684 74.946 4.39654 74.6927 4.69596C74.4393 4.99537 74.3126 5.34922 74.3126 5.75333V9.41225H72.9411V5.00793C72.9411 4.46564 72.9265 3.87728 72.893 3.24181H74.0959L74.1598 4.20601H74.1975C74.3587 3.90659 74.5953 3.65953 74.9073 3.46271C75.28 3.23239 75.6935 3.11514 76.15 3.11514C76.7237 3.11514 77.2022 3.30149 77.5822 3.67418C78.0565 4.13063 78.292 4.81216 78.292 5.71773V9.41329V9.41329ZM87.5093 4.27196H86.0017V7.26819C86.0017 8.03034 86.2697 8.41141 86.7995 8.41141C87.0455 8.41141 87.2496 8.39047 87.4098 8.34755L87.4454 9.38712C87.1753 9.48972 86.8193 9.53997 86.3817 9.53997C85.8405 9.53997 85.4196 9.37561 85.1149 9.04583C84.8092 8.71606 84.6574 8.1612 84.6574 7.38231V4.27196H83.7571V3.24495H84.6574V2.1143L85.9996 1.7081V3.24286H87.5082V4.27196H87.5093V4.27196ZM94.7593 9.41329H93.3889V5.90618C93.3889 4.80065 92.9764 4.24684 92.1493 4.24684C91.5138 4.24684 91.0804 4.56719 90.8417 5.20894C90.8019 5.34399 90.7789 5.50835 90.7789 5.70203V9.41225H89.4095V0.414133H90.7778V4.13168H90.804C91.2353 3.45538 91.8541 3.11723 92.655 3.11723C93.2214 3.11723 93.6914 3.30358 94.0631 3.67628C94.528 4.1411 94.7604 4.83206 94.7604 5.74495V9.41329H94.7593ZM102.24 6.03704C102.24 6.28306 102.221 6.49035 102.188 6.6589H98.0813C98.0991 7.26819 98.2948 7.73302 98.6759 8.05546C99.0235 8.34336 99.4716 8.48679 100.02 8.48679C100.627 8.48679 101.182 8.39047 101.682 8.1947L101.895 9.14738C101.311 9.40178 100.624 9.52845 99.8286 9.52845C98.8738 9.52845 98.1221 9.24788 97.5787 8.68465C97.0322 8.12142 96.7621 7.3666 96.7621 6.41916C96.7621 5.48951 97.0144 4.7148 97.5232 4.09713C98.053 3.43758 98.7712 3.10676 99.6768 3.10676C100.562 3.10676 101.236 3.43758 101.69 4.09713C102.058 4.62058 102.24 5.26757 102.24 6.03704V6.03704ZM100.932 5.68319C100.943 5.2749 100.853 4.92523 100.667 4.62896C100.43 4.24789 100.067 4.05735 99.5773 4.05735C99.1303 4.05735 98.766 4.2437 98.4875 4.61639C98.2603 4.91371 98.1252 5.26757 98.0813 5.68319H100.932Z" fill="#FFFFFE"/>
</svg>
