<svg width="35" height="24" viewBox="0 0 35 24" fill="none" xmlns="http://www.w3.org/2000/svg">
<path d="M3.0715 11.1548V18.2815H0.878784V0.688191H6.69669C8.09952 0.661444 9.46256 1.20932 10.4565 2.21966C12.446 4.1273 12.5679 7.3395 10.702 9.40159L10.4565 9.65439C9.43462 10.6501 8.18079 11.1557 6.69584 11.1557H3.0715V11.1548ZM3.0715 2.8495V8.99435H6.75087C7.56869 9.02196 8.35943 8.68546 8.91734 8.08237C10.062 6.86151 10.0349 4.89864 8.84961 3.7192C8.29085 3.15838 7.54076 2.8495 6.75002 2.8495H3.07235H3.0715ZM17.0931 5.85204C18.7143 5.85204 19.9952 6.30069 20.935 7.1842C21.8756 8.06856 22.3386 9.30237 22.3386 10.8597V18.2806H20.2407V16.6111H20.1451C19.2324 17.9864 18.0328 18.6732 16.5207 18.6732C15.2398 18.6732 14.1502 18.2806 13.2909 17.4955C12.446 16.7656 11.9702 15.6853 11.9965 14.549C11.9965 13.3006 12.4604 12.3187 13.373 11.575C14.2857 10.8321 15.5124 10.4671 17.0389 10.4671C18.346 10.4671 19.4094 10.7199 20.2543 11.1962V10.6777C20.2543 9.90632 19.9267 9.1764 19.3543 8.67166C18.7685 8.13845 18.0192 7.84337 17.2429 7.84337C16.0162 7.84337 15.0493 8.37658 14.3407 9.443L12.4054 8.19453C13.4408 6.63718 15.0079 5.85204 17.0931 5.85204ZM14.2578 14.5913C14.2578 15.1806 14.5304 15.7276 14.9799 16.0641C15.4709 16.4567 16.0703 16.6681 16.6833 16.6534C17.6095 16.6534 18.495 16.2746 19.1495 15.6008C19.8716 14.9002 20.2399 14.0719 20.2399 13.1185C19.5584 12.5577 18.6042 12.2764 17.3784 12.2902C16.4928 12.2902 15.7427 12.5146 15.1433 12.9503C14.5575 13.3851 14.2578 13.9321 14.2578 14.5913ZM34.3842 6.24461L27.0534 23.5696H24.7913L27.5165 17.5093L22.7069 6.24461H25.091L28.5655 14.8855H28.6069L31.9993 6.24461H34.3842Z" fill="#5F6368"/>
</svg>
