<?xml version="1.0" encoding="UTF-8"?>
<svg xmlns="http://www.w3.org/2000/svg" xmlns:xlink="http://www.w3.org/1999/xlink" width="190px" height="50px" viewBox="0 0 190 50" version="1.1">
<g id="surface1">
<path style=" stroke:none;fill-rule:nonzero;fill:rgb(0%,0%,0%);fill-opacity:1;" d="M 137.929688 0.179688 C 137.511719 0.277344 136.816406 0.542969 136.355469 0.769531 C 134.558594 1.679688 133.386719 2.9375 132.539062 4.890625 C 131.828125 6.527344 131.175781 7.277344 130.074219 7.703125 C 129.347656 7.980469 128.710938 8.035156 127.863281 7.882812 C 126.453125 7.632812 125.25 6.894531 123.277344 5.082031 C 121.453125 3.410156 120.621094 3.089844 118.867188 3.402344 C 116.703125 3.777344 115.574219 4.339844 115.054688 5.292969 C 114.710938 5.921875 114.445312 7.519531 114.445312 8.992188 C 114.445312 12.125 113.300781 14.167969 110.363281 16.25 C 108.921875 17.277344 107.898438 17.660156 105.953125 17.890625 C 104.691406 18.042969 97.777344 18.105469 94.480469 17.992188 C 89.019531 17.804688 81.253906 17.339844 74.8125 16.804688 C 67.390625 16.195312 64.628906 16.042969 61.125 16.042969 C 58.1875 16.042969 57.074219 16.125 53.050781 16.617188 C 49.089844 17.109375 48.359375 17.171875 46.460938 17.171875 C 42.585938 17.171875 40.359375 16.617188 33.25 13.890625 C 27.355469 11.625 22.933594 10.160156 16.625 8.390625 C 11.757812 7.019531 6.53125 5.785156 3.117188 5.1875 C 0 4.652344 -0.535156 4.644531 0.625 5.167969 C 2.167969 5.855469 4.707031 6.730469 11.132812 8.785156 C 20.351562 11.730469 25.886719 13.777344 31.082031 16.167969 C 34.527344 17.757812 36.324219 18.777344 37.375 19.742188 C 37.851562 20.171875 37.925781 20.304688 37.910156 20.695312 C 37.894531 21.296875 37.125 22.484375 35.507812 24.375 C 33.875 26.296875 32.464844 29.410156 31.558594 33.089844 C 31.054688 35.109375 29.390625 44.089844 29.390625 44.75 C 29.40625 46.179688 30.175781 47.117188 32.0625 48 C 34.320312 49.042969 35.03125 48.953125 40.375 47.007812 C 44.144531 45.625 45.511719 45.230469 47.128906 45.027344 C 48.125 44.902344 50.5 44.910156 52.324219 45.035156 C 56.375 45.328125 58.230469 45.410156 64.125 45.554688 C 70.34375 45.714844 81.300781 45.839844 93.960938 45.902344 C 114.488281 46.007812 118.988281 46.125 123.796875 46.671875 C 126.054688 46.9375 127.285156 47.144531 131.960938 48.046875 C 138.921875 49.402344 143.273438 50.0625 144.742188 49.980469 C 146.0625 49.902344 146.789062 49.542969 146.910156 48.902344 C 147.101562 47.859375 145.660156 46.410156 142.8125 44.757812 C 140.851562 43.632812 139.382812 42.5 139.382812 42.125 C 139.382812 42.019531 139.5 41.917969 139.664062 41.875 C 140.554688 41.660156 144 41.910156 151.421875 42.734375 C 154.019531 43.019531 155.695312 43.140625 157.300781 43.152344 C 158.621094 43.160156 158.859375 43.140625 159.230469 43.015625 C 159.601562 42.882812 159.644531 42.820312 159.628906 42.492188 C 159.601562 41.875 158.441406 40.972656 154.96875 38.890625 C 151.464844 36.785156 148.925781 34.796875 148.765625 34.042969 C 148.71875 33.757812 148.765625 33.671875 149.210938 33.367188 C 150.472656 32.507812 155.207031 31.082031 163.875 28.957031 C 168.582031 27.804688 170.660156 27.269531 173.300781 26.542969 C 185.429688 23.179688 190.996094 20.277344 189.835938 17.917969 C 188.769531 15.742188 182.175781 13.972656 169.738281 12.507812 C 163.546875 11.785156 159.527344 11.390625 156.957031 11.25 C 154.566406 11.125 153.007812 10.769531 150.722656 9.8125 C 148.703125 8.964844 147.21875 8.464844 145.542969 8.078125 C 142.78125 7.429688 142.441406 7.054688 142.203125 4.410156 C 142.039062 2.660156 141.890625 2 141.460938 1.203125 C 141.105469 0.554688 140.675781 0.222656 140.035156 0.0976562 C 139.324219 -0.0429688 138.804688 -0.0195312 137.929688 0.179688 Z M 149.253906 12.265625 C 149.9375 12.382812 150.828125 12.734375 151.214844 13.042969 C 152.964844 14.429688 149 16.285156 146.03125 15.464844 C 144.816406 15.132812 144.074219 14.484375 144.101562 13.785156 C 144.117188 13.140625 144.816406 12.589844 145.972656 12.3125 C 146.820312 12.109375 148.230469 12.089844 149.253906 12.265625 Z M 140.972656 15.355469 C 143.019531 16.597656 144.578125 17.144531 146.507812 17.320312 C 147.738281 17.429688 147.992188 17.515625 147.992188 17.804688 C 147.976562 18.222656 146.476562 18.820312 145.4375 18.820312 C 143.554688 18.820312 139.992188 17.105469 139.160156 15.804688 C 138.894531 15.402344 138.878906 14.839844 139.101562 14.644531 C 139.234375 14.519531 139.292969 14.515625 139.574219 14.605469 C 139.753906 14.660156 140.390625 14.992188 140.972656 15.355469 Z M 161.054688 22.078125 C 161.054688 22.214844 156.941406 23.339844 154.035156 23.992188 C 151.464844 24.578125 149.667969 24.859375 148.628906 24.859375 C 147.234375 24.859375 147.472656 24.527344 149.253906 23.964844 C 151.6875 23.203125 155.191406 22.535156 158.382812 22.222656 C 160.535156 22.007812 161.054688 21.980469 161.054688 22.078125 Z M 162.804688 24.457031 C 163.652344 24.855469 161.542969 26.097656 157.894531 27.375 C 154.714844 28.480469 152.890625 28.882812 152.773438 28.5 C 152.699219 28.242188 153.945312 27.484375 156.214844 26.417969 C 158.53125 25.332031 160.445312 24.660156 161.691406 24.480469 C 162.496094 24.359375 162.582031 24.355469 162.804688 24.457031 Z M 162.804688 24.457031 "/>
</g>
</svg>
