<svg width="59" height="25" viewBox="0 0 59 25" fill="none" xmlns="http://www.w3.org/2000/svg">
<path fill-rule="evenodd" clip-rule="evenodd" d="M11.2414 3.87777C11.8935 3.04991 12.3363 1.93747 12.2196 0.801758C11.2637 0.849187 10.0976 1.44076 9.42235 2.26948C8.81657 2.9792 8.28029 4.1382 8.42015 5.22648C9.49271 5.32134 10.5644 4.6832 11.2405 3.87777H11.2414ZM12.2067 5.43948C10.6493 5.34463 9.32453 6.33633 8.5806 6.33633C7.83668 6.33633 6.69806 5.48691 5.4659 5.50934C3.86136 5.53348 2.37352 6.45275 1.56009 7.9153C-0.113096 10.8421 1.1182 15.1823 2.74591 17.565C3.53616 18.7447 4.48859 20.0425 5.74391 19.9968C6.93059 19.9494 7.39479 19.2173 8.8363 19.2173C10.2778 19.2173 10.6965 19.996 11.951 19.9727C13.2535 19.9494 14.0678 18.793 14.8581 17.6133C15.7641 16.268 16.1365 14.9711 16.1588 14.8995C16.1357 14.8762 13.6491 13.9078 13.6259 11.0068C13.6019 8.57672 15.578 7.42117 15.6706 7.34873C14.5552 5.67577 12.8116 5.48605 12.2067 5.43948ZM23.9061 11.4975H27.0122C29.371 11.4975 30.713 10.2092 30.713 7.97739C30.713 5.74476 29.371 4.46934 27.0251 4.46934H23.9053V11.4975H23.9061ZM27.739 2.15134C31.1248 2.15134 33.4828 4.51849 33.4828 7.96445C33.4828 11.4233 31.0759 13.8026 27.6541 13.8026H23.9061V19.8494H21.1973V2.15134H27.7399H27.739ZM42.3772 15.0418V14.0483L39.3655 14.2441C37.6734 14.3545 36.7905 14.9926 36.7905 16.1085C36.7905 17.1882 37.7095 17.8875 39.1484 17.8875C40.9872 17.8875 42.3772 16.6975 42.3772 15.0418ZM34.1546 16.1827C34.1546 13.913 35.8595 12.6125 39.0025 12.4168L42.3772 12.2081V11.2276C42.3772 9.79263 41.4463 9.00703 39.7894 9.00703C38.4225 9.00703 37.4315 9.71847 37.2264 10.8102H34.7835C34.8556 8.51636 36.9836 6.84943 39.8632 6.84943C42.9573 6.84943 44.9771 8.49221 44.9771 11.043V19.8494H42.4733V17.728H42.4133C41.6994 19.1138 40.1274 19.9848 38.4234 19.9848C35.9084 19.9848 34.1546 18.4636 34.1546 16.1827ZM47.2784 24.5837V22.4623C47.4474 22.4865 47.8584 22.5115 48.0764 22.5115C49.2733 22.5115 49.9503 21.9966 50.3613 20.6712L50.6033 19.8865L46.0213 7.0081H48.8503L52.0422 17.4572H52.1023L55.2942 7.0081H58.052L53.3001 20.5367C52.2113 23.6394 50.9663 24.6578 48.3303 24.6578C48.1244 24.6578 47.4594 24.6328 47.2784 24.5837Z" fill="#222222"/>
</svg>
