<?xml version="1.0" encoding="UTF-8"?>
<svg xmlns="http://www.w3.org/2000/svg" xmlns:xlink="http://www.w3.org/1999/xlink" width="175px" height="60px" viewBox="0 0 175 60" version="1.1">
<g id="surface1">
<path style=" stroke:none;fill-rule:nonzero;fill:rgb(0%,0%,0%);fill-opacity:1;" d="M 100.117188 1.320312 C 98.683594 1.414062 97.304688 1.679688 95.238281 2.269531 C 91.453125 3.347656 90.164062 3.675781 89.234375 3.804688 C 87.59375 4.039062 85.765625 3.816406 84.191406 3.179688 C 82.796875 2.605469 80.210938 1.78125 79.84375 1.78125 C 79.378906 1.78125 79.105469 1.988281 79.226562 2.25 C 79.269531 2.351562 79.914062 2.773438 80.648438 3.179688 C 82.429688 4.164062 82.714844 4.40625 82.714844 4.914062 C 82.714844 5.429688 82.34375 5.765625 80.910156 6.617188 C 80.089844 7.085938 79.761719 7.351562 79.734375 7.527344 C 79.695312 7.726562 79.761719 7.789062 80.035156 7.835938 C 80.867188 7.976562 82.15625 7.601562 84.464844 6.535156 C 86.75 5.484375 87.953125 5.222656 89.578125 5.429688 C 90.371094 5.53125 90.5625 5.617188 91.945312 6.402344 C 93.609375 7.359375 94.007812 7.753906 93.859375 8.304688 C 93.773438 8.652344 93.117188 9.148438 91.492188 10.125 C 91.09375 10.359375 90.78125 10.59375 90.78125 10.640625 C 90.796875 11.089844 91.804688 11.128906 93.105469 10.714844 C 93.597656 10.566406 94.609375 10.152344 95.359375 9.796875 C 96.113281 9.449219 97.125 9.027344 97.617188 8.867188 C 98.421875 8.605469 98.628906 8.578125 99.898438 8.578125 C 101.242188 8.578125 101.296875 8.585938 101.582031 8.832031 C 101.746094 8.972656 102.46875 9.429688 103.210938 9.835938 C 104.808594 10.734375 104.945312 10.894531 104.890625 11.644531 C 104.863281 11.960938 104.164062 12.507812 102.921875 13.179688 C 102.414062 13.460938 101.976562 13.761719 101.9375 13.855469 C 101.855469 14.015625 101.734375 13.988281 100.488281 13.574219 C 99.75 13.320312 98.957031 13.078125 98.75 13.039062 C 97.972656 12.882812 97.507812 13.21875 97.945312 13.613281 C 98.039062 13.695312 98.726562 14.117188 99.476562 14.53125 C 100.828125 15.289062 101.308594 15.703125 101.308594 16.097656 C 101.308594 16.257812 101.210938 16.320312 100.9375 16.359375 C 99.804688 16.527344 97.984375 16.96875 95.851562 17.597656 C 92.789062 18.488281 91.65625 18.75 90.507812 18.816406 C 88.839844 18.910156 88.046875 18.75 84.984375 17.671875 C 83.4375 17.128906 82.046875 16.6875 81.851562 16.6875 C 81.429688 16.6875 81.15625 16.902344 81.28125 17.148438 C 81.320312 17.25 81.992188 17.691406 82.757812 18.121094 C 84.5625 19.144531 84.671875 19.238281 84.683594 19.695312 L 84.695312 20.070312 L 83.328125 20.429688 C 82.578125 20.625 81.007812 21.066406 79.84375 21.402344 C 77.289062 22.144531 75.976562 22.40625 74.757812 22.40625 C 73.253906 22.40625 72.53125 22.238281 69.796875 21.28125 C 68.375 20.773438 67.03125 20.34375 66.84375 20.304688 C 66.335938 20.230469 65.871094 20.503906 66.035156 20.773438 C 66.101562 20.886719 66.757812 21.320312 67.511719 21.742188 C 68.265625 22.152344 69.015625 22.601562 69.164062 22.742188 C 69.589844 23.109375 69.546875 23.746094 69.097656 24.195312 C 68.660156 24.636719 66.921875 25.59375 66.570312 25.59375 C 66.417969 25.59375 65.882812 25.359375 65.378906 25.070312 C 63.859375 24.207031 62.21875 23.757812 59.800781 23.523438 L 58.734375 23.417969 L 57.695312 22.742188 C 55.507812 21.335938 52.703125 20.71875 49.027344 20.839844 C 46.648438 20.914062 45.1875 21.195312 41.617188 22.285156 C 40.703125 22.554688 39.894531 22.78125 39.839844 22.773438 C 39.773438 22.773438 40.398438 22.546875 41.21875 22.273438 C 43.109375 21.65625 44.679688 20.960938 44.882812 20.652344 C 45.117188 20.296875 44.695312 19.847656 43.476562 19.152344 C 42.203125 18.421875 41.289062 18.085938 39.71875 17.757812 C 38.570312 17.511719 38.320312 17.492188 35.890625 17.492188 C 32.882812 17.484375 32.238281 17.570312 29.382812 18.382812 C 23.367188 20.082031 22.953125 20.15625 21.070312 19.996094 C 20.316406 19.929688 19.617188 19.800781 19.195312 19.660156 C 18.828125 19.527344 17.554688 19.078125 16.367188 18.664062 C 14.148438 17.878906 13.644531 17.785156 13.34375 18.113281 C 13.109375 18.367188 13.4375 18.636719 14.957031 19.480469 C 16.257812 20.195312 16.625 20.503906 16.695312 20.90625 C 16.761719 21.402344 16.734375 21.414062 14.53125 22.078125 C 11.457031 22.988281 10.648438 23.164062 9.269531 23.222656 C 7.464844 23.304688 6.644531 23.15625 4.648438 22.40625 C 1.492188 21.214844 0.453125 20.992188 0.09375 21.382812 C -0.09375 21.601562 0.21875 21.851562 1.734375 22.6875 C 2.433594 23.070312 3.132812 23.523438 3.28125 23.679688 C 3.59375 24.027344 3.636719 24.46875 3.363281 24.824219 C 3.144531 25.105469 2.160156 25.773438 1.257812 26.242188 C 0.628906 26.578125 0.410156 26.914062 0.695312 27.148438 C 1.121094 27.496094 2.9375 27.007812 5.265625 25.921875 C 7 25.105469 7.902344 24.835938 9.023438 24.777344 C 10.363281 24.703125 12.671875 25.058594 16.226562 25.867188 C 17.117188 26.070312 18.15625 26.289062 18.523438 26.34375 C 20.273438 26.625 23.296875 26.617188 24.921875 26.34375 C 25.5 26.242188 25.566406 26.195312 25.828125 25.753906 C 26.429688 24.722656 26.523438 23.953125 26.167969 23.035156 C 25.949219 22.453125 26.046875 22.265625 26.46875 22.378906 C 27.03125 22.519531 27.179688 24.515625 26.703125 25.425781 C 26.550781 25.726562 26.46875 25.96875 26.523438 25.96875 C 26.6875 25.96875 28.890625 25.238281 29.777344 24.890625 C 30.488281 24.609375 30.625 24.582031 30.625 24.710938 C 30.625 24.992188 29.941406 25.574219 28.96875 26.109375 C 27.90625 26.699219 27.578125 26.992188 27.699219 27.226562 C 28 27.75 29.898438 27.28125 32.71875 25.96875 C 33.921875 25.40625 35.367188 24.9375 35.890625 24.9375 C 36.148438 24.9375 38.484375 26.304688 38.664062 26.570312 C 39.117188 27.242188 38.773438 27.789062 37.390625 28.585938 C 36.121094 29.324219 35.820312 29.539062 35.820312 29.71875 C 35.820312 30.019531 36.382812 30.148438 37.078125 30.007812 C 37.859375 29.851562 39.703125 29.175781 40.617188 28.714844 C 42.246094 27.910156 43.4375 27.5625 44.652344 27.5625 C 45.882812 27.5625 48.371094 27.964844 51.421875 28.648438 C 53.457031 29.109375 53.59375 29.183594 53.59375 29.878906 C 53.59375 30.355469 53.085938 30.816406 51.789062 31.554688 C 51.1875 31.894531 50.667969 32.242188 50.625 32.316406 C 50.492188 32.550781 50.777344 32.765625 51.28125 32.8125 C 52.253906 32.914062 49.929688 33.09375 48.875 33 C 47.539062 32.878906 47.167969 32.792969 45.921875 32.296875 C 43.804688 31.453125 42.082031 30.929688 41.5625 30.957031 C 41.140625 30.984375 41.085938 31.011719 41.085938 31.265625 C 41.085938 31.5 41.289062 31.660156 42.519531 32.363281 C 44.367188 33.414062 44.433594 33.46875 44.433594 34.070312 C 44.433594 34.648438 44.078125 34.988281 42.628906 35.773438 C 41.507812 36.394531 41.234375 36.703125 41.632812 36.910156 C 41.808594 37.003906 42.082031 37.03125 42.4375 36.992188 C 43.175781 36.9375 44.953125 36.308594 46.28125 35.664062 C 46.882812 35.363281 47.769531 34.996094 48.261719 34.835938 C 49.546875 34.433594 50.832031 34.433594 53.390625 34.867188 C 54.441406 35.042969 55.359375 35.210938 55.414062 35.25 C 55.46875 35.289062 55.164062 35.34375 54.726562 35.371094 C 53.457031 35.464844 51.664062 35.859375 48.890625 36.675781 C 44.804688 37.867188 43.832031 38.035156 42.027344 37.875 C 41.054688 37.789062 40.671875 37.679688 38.132812 36.796875 C 35.289062 35.804688 34.65625 35.671875 34.316406 35.953125 C 34.042969 36.1875 34.34375 36.460938 35.671875 37.199219 C 37.351562 38.136719 37.609375 38.351562 37.695312 38.832031 C 37.773438 39.367188 37.335938 39.816406 35.957031 40.601562 C 34.796875 41.269531 34.726562 41.316406 34.726562 41.597656 C 34.726562 41.851562 35.179688 41.953125 35.859375 41.867188 C 36.503906 41.785156 38.265625 41.148438 39.511719 40.546875 C 40.890625 39.882812 42.179688 39.46875 43.09375 39.402344 C 43.515625 39.375 44.324219 39.421875 45.046875 39.515625 C 46.359375 39.683594 49.136719 40.179688 49.464844 40.304688 C 49.574219 40.351562 49.179688 40.398438 48.4375 40.433594 C 46.773438 40.519531 45.15625 40.835938 42.453125 41.625 C 38.921875 42.65625 37.570312 42.957031 36.328125 43.011719 C 34.808594 43.078125 33.78125 42.910156 32.292969 42.355469 C 30.367188 41.652344 28.410156 41.007812 28.015625 40.941406 C 27.808594 40.902344 27.5625 40.929688 27.414062 41.007812 C 26.945312 41.230469 27.261719 41.550781 28.78125 42.402344 C 30.433594 43.339844 30.664062 43.546875 30.652344 44.070312 C 30.640625 44.578125 30.203125 45 28.984375 45.695312 C 27.90625 46.292969 27.578125 46.59375 27.6875 46.808594 C 27.984375 47.34375 29.722656 46.914062 32.621094 45.601562 C 34.359375 44.804688 35.367188 44.53125 36.546875 44.53125 C 37.445312 44.53125 40.453125 44.953125 40.671875 45.113281 C 40.769531 45.1875 40.757812 45.195312 40.632812 45.148438 C 40.359375 45.039062 38.144531 45.261719 36.820312 45.523438 C 36.164062 45.65625 34.382812 46.117188 32.894531 46.554688 C 29.601562 47.523438 28.453125 47.757812 27.070312 47.757812 C 25.609375 47.746094 24.71875 47.578125 23.242188 47.015625 C 21.203125 46.238281 19.398438 45.65625 18.992188 45.65625 C 18.539062 45.65625 18.265625 45.863281 18.390625 46.117188 C 18.429688 46.21875 19.15625 46.695312 19.988281 47.164062 C 21.628906 48.09375 21.96875 48.441406 21.804688 49.011719 C 21.710938 49.378906 20.851562 50.054688 19.796875 50.597656 C 19.429688 50.792969 19.03125 51.066406 18.921875 51.207031 C 18.757812 51.429688 18.757812 51.476562 18.960938 51.609375 C 19.453125 51.957031 21.179688 51.523438 23.28125 50.539062 C 25.335938 49.585938 26.523438 49.21875 27.601562 49.21875 C 28.671875 49.21875 31.8125 49.742188 34.382812 50.34375 C 37.148438 50.992188 39.621094 51.214844 41.765625 51.007812 C 43.734375 50.8125 43.832031 50.785156 44.160156 50.195312 C 44.664062 49.246094 44.773438 48.515625 44.53125 47.726562 C 44.242188 46.867188 44.242188 46.875 44.570312 46.875 C 44.953125 46.875 45.101562 47.136719 45.265625 48.027344 C 45.375 48.695312 45.363281 48.890625 45.132812 49.5 C 44.980469 49.882812 44.828125 50.277344 44.773438 50.371094 C 44.570312 50.710938 48.890625 49.171875 49.738281 48.589844 C 49.902344 48.476562 50.039062 48.273438 50.039062 48.140625 C 50.039062 47.867188 49.257812 47.242188 48.234375 46.6875 L 47.605469 46.339844 L 49.53125 46.285156 C 50.601562 46.257812 51.75 46.179688 52.089844 46.105469 C 52.648438 45.984375 52.734375 45.9375 53.007812 45.460938 C 53.429688 44.726562 53.566406 44.007812 53.414062 43.304688 C 53.226562 42.347656 53.226562 42.140625 53.457031 42.140625 C 53.8125 42.140625 54.046875 42.664062 54.113281 43.59375 C 54.15625 44.304688 54.113281 44.605469 53.882812 45.09375 C 53.730469 45.421875 53.621094 45.710938 53.648438 45.722656 C 53.730469 45.789062 55.90625 45.054688 57.121094 44.558594 C 58.421875 44.023438 58.925781 43.695312 58.925781 43.386719 C 58.925781 43.144531 57.421875 42.074219 56.453125 41.632812 L 55.6875 41.289062 L 57.203125 41.175781 C 59.5 41.015625 59.664062 40.96875 60.007812 40.378906 C 60.59375 39.347656 60.703125 38.523438 60.347656 37.695312 C 60.117188 37.132812 60.238281 36.898438 60.675781 37.085938 C 61.265625 37.339844 61.375 39.039062 60.867188 40.058594 C 60.730469 40.351562 60.664062 40.59375 60.71875 40.59375 C 60.960938 40.59375 63.289062 39.816406 64.257812 39.402344 C 65.679688 38.804688 65.898438 38.652344 65.898438 38.269531 C 65.898438 37.996094 65.761719 37.867188 65.050781 37.398438 C 64.585938 37.097656 64.011719 36.75 63.75 36.636719 C 63.507812 36.515625 63.300781 36.402344 63.300781 36.375 C 63.300781 36.347656 63.585938 36.320312 63.957031 36.300781 C 64.886719 36.261719 66.0625 36.09375 66.390625 35.953125 C 66.570312 35.867188 66.773438 35.597656 66.9375 35.210938 C 67.128906 34.753906 67.265625 34.574219 67.511719 34.5 C 67.703125 34.445312 67.867188 34.414062 67.894531 34.433594 C 67.949219 34.460938 67.632812 35.277344 67.46875 35.570312 C 67.375 35.71875 67.402344 35.726562 67.6875 35.671875 C 68.03125 35.597656 70.464844 34.78125 70.914062 34.585938 C 71.242188 34.445312 72.257812 34.59375 74.785156 35.148438 C 76.578125 35.53125 77.164062 35.832031 77.3125 36.441406 C 77.464844 37.078125 77.027344 37.539062 75.453125 38.398438 C 74.9375 38.679688 74.457031 39 74.375 39.101562 C 74.140625 39.394531 74.429688 39.5625 75.140625 39.5625 C 75.867188 39.5625 77.765625 38.914062 79.269531 38.164062 C 80.691406 37.453125 82.003906 37.085938 83.125 37.097656 C 84.3125 37.105469 86.75 37.492188 89.757812 38.15625 C 91.109375 38.457031 92.722656 38.757812 93.351562 38.820312 C 94.582031 38.953125 94.664062 39.007812 94.226562 39.515625 C 93.9375 39.835938 93.007812 40.460938 92.285156 40.828125 C 91.671875 41.128906 91.464844 41.324219 91.464844 41.585938 C 91.464844 41.8125 91.695312 41.90625 92.285156 41.90625 C 92.777344 41.90625 95.117188 41.101562 96.222656 40.546875 C 98.179688 39.5625 99.492188 39.28125 101.210938 39.449219 C 102.5 39.582031 105.125 40.03125 106.394531 40.339844 C 107.171875 40.527344 107.257812 40.574219 107.296875 40.828125 C 107.351562 41.183594 106.789062 41.738281 105.875 42.234375 C 104.710938 42.863281 104.316406 43.152344 104.316406 43.367188 C 104.316406 44.070312 106.394531 43.621094 109.15625 42.328125 C 109.894531 41.980469 110.878906 41.585938 111.34375 41.464844 C 112.09375 41.25 112.3125 41.230469 113.613281 41.277344 C 115.199219 41.324219 116.539062 41.539062 119.835938 42.28125 C 120.96875 42.535156 122.117188 42.769531 122.40625 42.796875 C 122.898438 42.863281 123.046875 42.964844 122.773438 43.078125 C 122.582031 43.164062 122.609375 43.566406 122.8125 43.621094 C 123.304688 43.742188 122.554688 43.828125 120.996094 43.828125 L 119.246094 43.828125 L 116.359375 42.816406 C 113.570312 41.832031 112.835938 41.652344 112.492188 41.886719 C 112.179688 42.101562 112.546875 42.460938 113.953125 43.246094 C 115.59375 44.175781 115.84375 44.390625 115.84375 44.898438 C 115.84375 45.414062 115.390625 45.851562 114.132812 46.566406 C 112.984375 47.222656 112.738281 47.429688 112.875 47.671875 C 112.957031 47.804688 112.859375 47.820312 112.09375 47.765625 C 110.671875 47.664062 110.304688 47.570312 107.542969 46.585938 C 104.875 45.648438 104.25 45.507812 103.90625 45.796875 C 103.617188 46.03125 103.933594 46.3125 105.410156 47.117188 C 106.96875 47.980469 107.324219 48.289062 107.324219 48.796875 C 107.324219 49.292969 106.84375 49.742188 105.519531 50.492188 C 104.328125 51.167969 104.195312 51.308594 104.4375 51.582031 C 104.601562 51.757812 104.578125 51.769531 103.878906 51.703125 C 102.757812 51.609375 102.402344 51.507812 99.558594 50.511719 C 96.851562 49.554688 96.375 49.460938 96.058594 49.800781 C 95.839844 50.042969 96.015625 50.183594 97.589844 51.101562 C 99.242188 52.050781 99.4375 52.21875 99.449219 52.734375 C 99.460938 53.222656 99 53.710938 97.984375 54.273438 C 97.359375 54.628906 97.21875 54.664062 96.757812 54.628906 C 96.195312 54.570312 96.101562 54.542969 93.105469 53.464844 C 90.917969 52.679688 90.359375 52.539062 89.960938 52.6875 C 89.359375 52.914062 89.605469 53.175781 91.398438 54.179688 C 92.953125 55.050781 93.148438 55.21875 93.160156 55.78125 C 93.171875 56.335938 92.804688 56.679688 91.3125 57.523438 C 90.207031 58.144531 89.976562 58.492188 90.507812 58.6875 C 91.109375 58.914062 92.820312 58.414062 94.9375 57.402344 C 95.523438 57.113281 96.414062 56.757812 96.921875 56.585938 C 97.753906 56.316406 97.929688 56.296875 99.1875 56.304688 C 100.761719 56.316406 102.320312 56.550781 105.640625 57.289062 C 106.789062 57.554688 108.144531 57.816406 108.648438 57.890625 C 110.484375 58.164062 114.570312 58.003906 115.199219 57.648438 C 115.515625 57.46875 115.976562 56.277344 115.992188 55.632812 C 116.007812 55.085938 116.03125 55.03125 116.304688 55.03125 C 116.523438 55.03125 116.621094 55.105469 116.6875 55.304688 C 116.785156 55.601562 116.578125 56.511719 116.28125 57.09375 C 116.171875 57.300781 116.117188 57.46875 116.15625 57.46875 C 116.347656 57.46875 119.015625 56.558594 119.835938 56.203125 C 121.0625 55.679688 121.433594 55.40625 121.390625 55.058594 C 121.378906 54.917969 121.5 54.589844 121.679688 54.335938 C 121.84375 54.09375 122.078125 53.558594 122.199219 53.15625 C 122.40625 52.472656 122.40625 52.378906 122.171875 51.703125 C 121.914062 50.960938 121.980469 50.757812 122.40625 50.859375 C 122.964844 51.007812 123.128906 52.914062 122.648438 53.859375 C 122.5 54.167969 122.40625 54.429688 122.429688 54.449219 C 122.515625 54.507812 125.753906 53.363281 126.585938 52.976562 C 127.859375 52.386719 127.996094 52.070312 127.21875 51.476562 C 126.957031 51.28125 126.738281 51.09375 126.738281 51.074219 C 126.738281 51.046875 127.148438 51 127.640625 50.960938 C 129.117188 50.859375 129.390625 50.746094 129.734375 50.054688 C 130.15625 49.226562 130.25 48.1875 129.964844 47.539062 C 129.734375 46.996094 129.757812 46.875 130.15625 46.875 C 130.757812 46.875 131.003906 48.882812 130.523438 49.867188 C 130.390625 50.136719 130.304688 50.382812 130.347656 50.410156 C 130.511719 50.523438 133.695312 49.398438 134.734375 48.863281 C 135.625 48.402344 135.707031 48.054688 135.078125 47.523438 L 134.65625 47.15625 L 135.242188 47.15625 C 136.265625 47.148438 137.703125 46.914062 137.90625 46.726562 C 138.222656 46.425781 138.671875 45.28125 138.6875 44.726562 C 138.703125 44.4375 138.617188 43.960938 138.507812 43.660156 C 138.359375 43.257812 138.359375 43.085938 138.46875 43.011719 C 139.195312 42.515625 139.601562 44.953125 139 46.125 C 138.878906 46.351562 138.796875 46.554688 138.824219 46.574219 C 138.921875 46.632812 141.667969 45.710938 142.53125 45.335938 C 143.636719 44.859375 144.101562 44.539062 144.101562 44.277344 C 144.101562 44.136719 143.84375 43.855469 143.40625 43.539062 L 142.695312 43.03125 L 143.773438 43.03125 C 144.949219 43.03125 146.523438 42.898438 147.203125 42.742188 C 147.574219 42.664062 147.695312 42.554688 147.929688 42.113281 C 148.382812 41.316406 148.546875 40.5 148.382812 39.9375 L 148.242188 39.46875 L 148.613281 39.46875 C 148.96875 39.46875 148.996094 39.496094 149.078125 40.058594 C 149.160156 40.679688 148.996094 41.550781 148.667969 42.085938 C 148.558594 42.261719 148.492188 42.421875 148.515625 42.441406 C 148.546875 42.460938 149.421875 42.179688 150.472656 41.8125 C 153.796875 40.667969 154.34375 40.238281 153.359375 39.507812 L 152.890625 39.160156 L 153.21875 38.625 C 153.382812 38.335938 153.601562 37.789062 153.699219 37.425781 C 153.835938 36.851562 153.835938 36.664062 153.632812 36.074219 C 153.328125 35.222656 153.328125 35.230469 153.699219 35.269531 C 154.546875 35.351562 154.65625 37.453125 153.875 38.746094 C 153.671875 39.074219 157.828125 37.601562 158.742188 37.011719 C 159.25 36.695312 159.25 36.375 158.730469 35.972656 L 158.335938 35.652344 L 159.59375 35.597656 C 161.082031 35.523438 162.367188 35.363281 162.546875 35.210938 C 162.929688 34.882812 163.28125 33.84375 163.296875 33.074219 C 163.3125 32.34375 163.335938 32.25 163.585938 32.210938 C 163.71875 32.183594 163.871094 32.183594 163.914062 32.210938 C 164.101562 32.34375 163.953125 33.929688 163.695312 34.460938 L 163.421875 35.042969 L 163.914062 34.902344 C 165.007812 34.59375 167.316406 33.730469 167.960938 33.394531 C 168.945312 32.886719 168.957031 32.597656 168.054688 31.949219 L 167.382812 31.460938 L 168.179688 31.210938 C 169.367188 30.824219 170.84375 30.214844 171.375 29.886719 C 172.046875 29.492188 172.007812 29.25 171.171875 28.648438 L 170.5 28.164062 L 171.59375 27.796875 C 173.179688 27.273438 174.699219 26.578125 174.890625 26.289062 C 175.136719 25.921875 174.726562 25.480469 173.496094 24.777344 C 172.25 24.054688 171.046875 23.625 169.476562 23.34375 L 168.300781 23.128906 L 168.804688 22.894531 C 169.492188 22.59375 169.667969 22.425781 169.667969 22.105469 C 169.667969 21.617188 167.699219 20.390625 166.101562 19.875 C 165.117188 19.566406 163.296875 19.21875 162.601562 19.21875 C 162.1875 19.21875 162.148438 19.199219 162.230469 18.992188 C 162.351562 18.636719 161.957031 18.242188 160.808594 17.570312 C 159.015625 16.519531 157.265625 16.03125 154.53125 15.84375 C 153.753906 15.796875 152.757812 15.777344 152.304688 15.816406 C 151.523438 15.871094 151.484375 15.863281 151.359375 15.636719 C 151.195312 15.335938 149.515625 14.289062 148.558594 13.894531 C 146.546875 13.058594 142.882812 12.636719 140.179688 12.9375 L 139.328125 13.03125 L 138.386719 12.394531 C 137.085938 11.511719 136.0625 11.082031 134.460938 10.707031 C 133.328125 10.445312 132.972656 10.3125 132.414062 9.945312 C 130.8125 8.90625 129.554688 8.390625 127.804688 8.0625 C 126.492188 7.828125 124.46875 7.6875 123.085938 7.753906 L 121.980469 7.808594 L 122.046875 7.566406 C 122.144531 7.210938 121.679688 6.757812 120.613281 6.160156 C 119.289062 5.429688 118.6875 5.183594 117.332031 4.882812 C 115.8125 4.539062 114.023438 4.367188 112.257812 4.425781 L 110.878906 4.460938 L 110.878906 4.191406 C 110.878906 3.910156 110.210938 3.402344 108.910156 2.699219 C 107.542969 1.949219 105.601562 1.480469 103.210938 1.3125 C 101.703125 1.210938 101.746094 1.210938 100.117188 1.320312 Z M 105.792969 3.113281 C 106.121094 3.394531 106.339844 4.800781 106.148438 5.304688 C 106.109375 5.417969 105.929688 5.550781 105.738281 5.605469 L 105.421875 5.710938 L 105.507812 4.988281 C 105.5625 4.445312 105.519531 4.117188 105.355469 3.722656 C 105.234375 3.421875 105.164062 3.140625 105.203125 3.09375 C 105.328125 2.960938 105.628906 2.980469 105.792969 3.113281 Z M 116.960938 6.308594 C 117.222656 6.589844 117.441406 7.789062 117.320312 8.34375 C 117.265625 8.664062 117.15625 8.785156 116.894531 8.878906 C 116.71875 8.933594 116.554688 8.980469 116.523438 8.972656 C 116.511719 8.953125 116.554688 8.664062 116.632812 8.304688 C 116.757812 7.789062 116.742188 7.546875 116.554688 6.984375 C 116.335938 6.308594 116.359375 6.09375 116.621094 6.09375 C 116.6875 6.09375 116.839844 6.1875 116.960938 6.308594 Z M 128.105469 9.710938 C 128.335938 10.125 128.28125 10.3125 127.914062 10.3125 C 127.667969 10.3125 127.570312 10.246094 127.503906 10.023438 C 127.367188 9.554688 127.40625 9.46875 127.695312 9.46875 C 127.875 9.46875 128.023438 9.5625 128.105469 9.710938 Z M 107.445312 9.84375 C 107.871094 9.957031 108.828125 10.117188 109.578125 10.21875 C 110.539062 10.332031 110.78125 10.386719 110.398438 10.398438 C 109.429688 10.414062 108.101562 10.21875 107.257812 9.9375 C 106.285156 9.617188 106.367188 9.582031 107.445312 9.84375 Z M 115.046875 12.414062 C 116.675781 12.710938 116.960938 12.84375 115.964844 12.84375 C 114.679688 12.84375 113.242188 12.535156 112.328125 12.066406 C 112.09375 11.945312 112.164062 11.945312 112.875 12.046875 C 113.3125 12.113281 114.296875 12.273438 115.046875 12.414062 Z M 133.929688 11.980469 C 134.148438 12.074219 134.367188 12.617188 134.460938 13.320312 C 134.570312 14.007812 134.4375 14.289062 134 14.371094 C 133.738281 14.417969 133.726562 14.382812 133.792969 13.882812 C 133.847656 13.539062 133.804688 13.152344 133.640625 12.730469 C 133.382812 12 133.464844 11.765625 133.929688 11.980469 Z M 110.78125 13.339844 C 111.03125 13.648438 111.085938 14.035156 110.90625 14.210938 C 110.769531 14.363281 110.386719 14.484375 109.171875 14.765625 C 107.1875 15.226562 104.960938 15.179688 103.429688 14.652344 L 102.742188 14.410156 L 103.222656 14.296875 C 104.085938 14.089844 105.453125 13.585938 106.503906 13.078125 C 107.0625 12.816406 107.828125 12.476562 108.199219 12.347656 L 108.867188 12.101562 L 109.703125 12.570312 C 110.167969 12.835938 110.648438 13.179688 110.78125 13.339844 Z M 146.25 14.644531 C 146.480469 14.851562 146.699219 15.617188 146.699219 16.199219 C 146.699219 16.695312 146.671875 16.761719 146.359375 16.855469 L 146.015625 16.96875 L 146.015625 16.285156 C 146.015625 15.917969 145.921875 15.414062 145.824219 15.179688 C 145.671875 14.859375 145.671875 14.710938 145.78125 14.632812 C 145.976562 14.503906 146.085938 14.503906 146.25 14.644531 Z M 112.109375 17.316406 C 112.203125 17.382812 111.207031 17.257812 110.375 17.101562 C 109.976562 17.023438 109.621094 16.929688 109.578125 16.882812 C 109.511719 16.800781 111.972656 17.222656 112.109375 17.316406 Z M 130.785156 17.503906 C 130.894531 17.980469 130.785156 18.816406 130.566406 19.339844 C 130.429688 19.667969 129.828125 20.0625 129.664062 19.941406 C 129.625 19.914062 129.691406 19.660156 129.828125 19.386719 C 130.019531 19.03125 130.085938 18.628906 130.085938 17.945312 C 130.074219 17.015625 130.085938 17.007812 130.390625 17.042969 C 130.632812 17.070312 130.703125 17.164062 130.785156 17.503906 Z M 157.210938 17.832031 C 157.484375 18.375 157.570312 19.226562 157.351562 19.320312 C 156.953125 19.492188 156.84375 19.398438 156.761719 18.816406 C 156.71875 18.496094 156.652344 18.074219 156.597656 17.878906 C 156.53125 17.570312 156.542969 17.53125 156.789062 17.53125 C 156.980469 17.53125 157.117188 17.625 157.210938 17.832031 Z M 107.28125 18.300781 C 107.242188 18.367188 107.214844 18.320312 107.214844 18.1875 C 107.214844 18.054688 107.242188 18.007812 107.28125 18.066406 C 107.3125 18.132812 107.3125 18.242188 107.28125 18.300781 Z M 39.921875 19.378906 C 40.015625 19.527344 40.125 20.042969 40.167969 20.539062 C 40.222656 21.289062 40.179688 21.554688 39.921875 22.152344 C 39.621094 22.828125 39.59375 22.867188 39.046875 23.007812 C 37.925781 23.296875 36.832031 23.4375 35.820312 23.417969 C 35.257812 23.410156 35.039062 23.390625 35.34375 23.371094 C 36.40625 23.316406 38.023438 23.148438 38.40625 23.054688 C 38.855469 22.941406 39.128906 22.539062 39.429688 21.554688 C 39.59375 20.972656 39.578125 20.671875 39.304688 19.519531 C 39.210938 19.164062 39.226562 19.125 39.46875 19.125 C 39.632812 19.125 39.8125 19.226562 39.921875 19.378906 Z M 142.859375 20.503906 C 143.035156 20.925781 143.035156 21 142.914062 21 C 142.664062 20.992188 142.203125 20.652344 142.117188 20.410156 C 142.039062 20.183594 142.0625 20.15625 142.367188 20.15625 C 142.664062 20.15625 142.75 20.222656 142.859375 20.503906 Z M 122.417969 20.410156 C 123.007812 20.523438 123.839844 20.570312 125.261719 20.570312 C 126.355469 20.578125 127.242188 20.585938 127.21875 20.605469 C 127.09375 20.699219 125.480469 20.898438 124.878906 20.90625 C 123.867188 20.90625 122.664062 20.738281 121.953125 20.484375 C 121.214844 20.210938 121.296875 20.203125 122.417969 20.410156 Z M 118.34375 20.972656 C 118.507812 21.355469 118.578125 21.871094 118.546875 22.660156 C 118.535156 22.960938 118.4375 23.136719 118.109375 23.390625 C 117.5625 23.8125 117.429688 23.804688 117.648438 23.363281 C 117.976562 22.707031 118.03125 22.003906 117.796875 21.382812 C 117.507812 20.597656 117.507812 20.511719 117.878906 20.550781 C 118.097656 20.570312 118.21875 20.679688 118.34375 20.972656 Z M 164.691406 21.148438 C 164.800781 21.335938 164.9375 21.84375 164.976562 22.273438 L 165.0625 23.0625 L 164.691406 23.0625 C 164.351562 23.0625 164.335938 23.042969 164.335938 22.519531 C 164.335938 22.21875 164.242188 21.75 164.132812 21.488281 C 164.007812 21.214844 163.953125 20.953125 163.992188 20.90625 C 164.171875 20.710938 164.5 20.820312 164.691406 21.148438 Z M 148.476562 21.414062 L 148.953125 21.535156 L 148.367188 21.609375 C 147.710938 21.683594 147.617188 21.65625 147.738281 21.429688 C 147.835938 21.253906 147.847656 21.253906 148.476562 21.414062 Z M 92.695312 21.804688 C 92.84375 22.003906 92.898438 22.386719 92.898438 23.175781 L 92.898438 24.28125 L 92.460938 24.582031 C 92.21875 24.742188 91.984375 24.863281 91.957031 24.835938 C 91.914062 24.804688 91.96875 24.5625 92.078125 24.28125 C 92.328125 23.664062 92.339844 22.742188 92.132812 22.171875 C 91.875 21.46875 92.257812 21.226562 92.695312 21.804688 Z M 53.703125 22.621094 C 53.867188 22.753906 54.210938 23.710938 54.113281 23.757812 C 54.101562 23.773438 53.949219 23.8125 53.785156 23.851562 C 53.539062 23.90625 53.484375 23.851562 53.335938 23.304688 C 53.171875 22.726562 53.195312 22.5 53.445312 22.5 C 53.511719 22.5 53.621094 22.554688 53.703125 22.621094 Z M 132.890625 23.804688 C 133.136719 24.121094 133.070312 24.261719 132.671875 24.207031 C 132.289062 24.160156 132.125 23.992188 132.261719 23.765625 C 132.371094 23.570312 132.710938 23.585938 132.890625 23.804688 Z M 151.402344 23.8125 C 151.566406 23.925781 151.6875 25.554688 151.523438 25.621094 C 151.457031 25.648438 151.265625 25.660156 151.117188 25.632812 C 150.882812 25.585938 150.855469 25.519531 150.898438 25.097656 C 150.921875 24.824219 150.867188 24.382812 150.757812 24.113281 L 150.570312 23.605469 L 150.921875 23.671875 C 151.117188 23.710938 151.335938 23.765625 151.402344 23.8125 Z M 108.023438 24.695312 C 108.199219 25.152344 108.226562 26.492188 108.0625 26.773438 C 107.96875 26.933594 107.871094 26.960938 107.652344 26.90625 C 107.378906 26.832031 107.378906 26.792969 107.5 26.304688 C 107.609375 25.882812 107.597656 25.621094 107.40625 25.023438 C 107.214844 24.402344 107.203125 24.242188 107.335938 24.179688 C 107.609375 24.066406 107.84375 24.253906 108.023438 24.695312 Z M 156.40625 24.84375 C 156.40625 24.890625 156.335938 24.9375 156.257812 24.9375 C 156.1875 24.9375 156.160156 24.890625 156.203125 24.84375 C 156.242188 24.789062 156.3125 24.75 156.351562 24.75 C 156.378906 24.75 156.40625 24.789062 156.40625 24.84375 Z M 170.050781 25.265625 C 170.242188 25.789062 170.214844 27.421875 170.007812 27.675781 C 169.886719 27.804688 169.832031 27.804688 169.625 27.703125 C 169.40625 27.589844 169.394531 27.523438 169.546875 26.960938 C 169.667969 26.445312 169.65625 26.230469 169.460938 25.640625 C 169.230469 24.910156 169.273438 24.722656 169.640625 24.769531 C 169.789062 24.789062 169.941406 24.976562 170.050781 25.265625 Z M 82.890625 25.210938 C 83.097656 25.351562 83.25 26.652344 83.097656 27.195312 C 82.976562 27.683594 82.890625 27.789062 82.398438 28.050781 C 81.960938 28.292969 81.867188 28.320312 81.949219 28.171875 C 82.453125 27.320312 82.578125 26.210938 82.25 25.460938 L 82.046875 25.011719 L 82.414062 25.078125 C 82.617188 25.105469 82.824219 25.171875 82.890625 25.210938 Z M 61.867188 25.21875 C 61.90625 25.265625 61.878906 25.3125 61.8125 25.3125 C 61.726562 25.3125 61.660156 25.265625 61.660156 25.21875 C 61.660156 25.164062 61.6875 25.125 61.714844 25.125 C 61.757812 25.125 61.824219 25.164062 61.867188 25.21875 Z M 42.054688 25.742188 C 42.695312 25.882812 43.1875 26.015625 43.148438 26.035156 C 43.066406 26.101562 41.46875 25.800781 41.042969 25.640625 C 40.496094 25.445312 40.769531 25.472656 42.054688 25.742188 Z M 133.246094 25.847656 C 133.203125 25.941406 133.109375 26.203125 133.027344 26.4375 C 132.808594 27.007812 132.753906 27.046875 132.523438 26.8125 C 132.234375 26.53125 132.414062 25.894531 132.796875 25.78125 C 133.246094 25.660156 133.328125 25.667969 133.246094 25.847656 Z M 115.59375 26.054688 C 115.515625 26.15625 112.945312 26.859375 112.3125 26.953125 C 111.929688 27.019531 111.917969 27.007812 112.179688 26.878906 C 113.132812 26.398438 115.898438 25.734375 115.59375 26.054688 Z M 136.921875 26.054688 C 136.789062 26.148438 133.640625 27.09375 133.464844 27.09375 C 133.246094 27.09375 136.539062 25.988281 136.789062 25.976562 C 136.953125 25.96875 136.992188 26.007812 136.921875 26.054688 Z M 89.484375 26.851562 C 88.8125 27.019531 87.953125 27.242188 87.582031 27.355469 C 86.664062 27.636719 86.625 27.609375 87.429688 27.261719 C 88.25 26.90625 89.726562 26.53125 90.304688 26.539062 C 90.601562 26.539062 90.371094 26.625 89.484375 26.851562 Z M 154.191406 27.28125 C 155.722656 27.460938 155.734375 27.488281 154.617188 27.835938 C 154.054688 28.003906 153.535156 28.164062 153.453125 28.191406 C 153.371094 28.210938 153.304688 28.117188 153.304688 27.957031 C 153.304688 27.804688 153.164062 27.542969 153 27.382812 L 152.6875 27.085938 L 153.015625 27.132812 C 153.179688 27.160156 153.710938 27.226562 154.191406 27.28125 Z M 98.710938 28.179688 C 99.011719 28.707031 99.121094 29.726562 98.96875 30.347656 C 98.820312 30.9375 98.640625 31.105469 98.257812 31.003906 C 98.09375 30.964844 98.09375 30.863281 98.257812 30.355469 C 98.453125 29.757812 98.410156 29.082031 98.148438 28.519531 C 98.070312 28.351562 98.039062 28.152344 98.082031 28.078125 C 98.203125 27.851562 98.574219 27.917969 98.710938 28.179688 Z M 61.851562 28.378906 C 61.398438 28.601562 61.15625 28.507812 61.59375 28.273438 C 61.824219 28.144531 62.03125 28.085938 62.054688 28.144531 C 62.085938 28.199219 62 28.304688 61.851562 28.378906 Z M 104.863281 28.492188 C 104.863281 28.734375 103.6875 28.820312 103.304688 28.601562 C 103.070312 28.460938 103.085938 28.453125 103.578125 28.398438 C 104.632812 28.285156 104.863281 28.304688 104.863281 28.492188 Z M 148.558594 28.921875 C 148.460938 29.101562 147.929688 28.976562 147.929688 28.773438 C 147.929688 28.679688 148.066406 28.539062 148.242188 28.453125 C 148.53125 28.3125 148.546875 28.320312 148.585938 28.554688 C 148.613281 28.6875 148.601562 28.855469 148.558594 28.921875 Z M 109.992188 28.773438 C 109.839844 28.808594 109.539062 28.875 109.304688 28.902344 L 108.898438 28.960938 L 109.304688 28.828125 C 109.539062 28.753906 109.839844 28.695312 109.992188 28.695312 L 110.265625 28.695312 Z M 167.125 29.023438 C 167.34375 29.410156 167.085938 31.132812 166.8125 31.125 C 166.769531 31.125 166.617188 31.058594 166.484375 30.992188 C 166.265625 30.871094 166.25 30.804688 166.386719 30.273438 C 166.46875 29.953125 166.507812 29.539062 166.453125 29.371094 C 166.414062 29.203125 166.414062 29.015625 166.453125 28.96875 C 166.59375 28.820312 167.03125 28.855469 167.125 29.023438 Z M 133.75 29.296875 C 134.285156 29.371094 134.40625 29.476562 134.039062 29.570312 C 133.65625 29.671875 133.367188 29.625 132.960938 29.382812 C 132.5625 29.136719 132.546875 29.136719 132.890625 29.183594 C 133.082031 29.210938 133.464844 29.269531 133.75 29.296875 Z M 103.796875 29.550781 C 103.703125 29.617188 103.632812 29.625 103.632812 29.570312 C 103.632812 29.4375 103.796875 29.324219 103.890625 29.390625 C 103.921875 29.417969 103.878906 29.492188 103.796875 29.550781 Z M 130.140625 29.933594 C 130.226562 30.007812 130.335938 30.1875 130.375 30.347656 C 130.445312 30.582031 130.402344 30.636719 130.15625 30.683594 C 129.9375 30.722656 129.84375 30.683594 129.734375 30.507812 C 129.445312 29.980469 129.71875 29.597656 130.140625 29.933594 Z M 102.292969 30.414062 C 102.074219 30.589844 101.867188 30.777344 101.84375 30.835938 C 101.789062 30.929688 100.367188 31.164062 100.269531 31.097656 C 100.242188 31.078125 100.640625 30.917969 101.144531 30.722656 C 101.648438 30.535156 102.183594 30.320312 102.335938 30.242188 C 102.757812 30.027344 102.742188 30.066406 102.292969 30.414062 Z M 61.015625 30.460938 C 61.125 30.535156 61.085938 30.5625 60.894531 30.5625 C 60.292969 30.5625 58.078125 31.085938 55.535156 31.820312 C 52.429688 32.71875 51.71875 32.886719 53.195312 32.371094 C 53.773438 32.164062 54.714844 31.773438 55.316406 31.492188 C 57.351562 30.507812 58.296875 30.261719 59.800781 30.320312 C 60.390625 30.335938 60.9375 30.402344 61.015625 30.460938 Z M 150.1875 30.46875 C 151.609375 30.628906 152.46875 30.769531 152.386719 30.816406 C 152.34375 30.851562 151.703125 31.050781 150.976562 31.273438 L 149.640625 31.679688 L 149.542969 31.414062 C 149.488281 31.273438 149.257812 31.039062 149.023438 30.890625 C 148.546875 30.582031 148.515625 30.496094 148.859375 30.441406 C 149.242188 30.367188 149.324219 30.375 150.1875 30.46875 Z M 86.378906 31.988281 C 86.585938 32.164062 86.816406 33.039062 86.816406 33.617188 C 86.816406 34.414062 86.570312 34.96875 86.160156 35.070312 C 85.96875 35.117188 85.804688 35.148438 85.777344 35.136719 C 85.765625 35.117188 85.832031 34.875 85.941406 34.59375 C 86.1875 33.9375 86.1875 33.148438 85.929688 32.578125 C 85.789062 32.242188 85.777344 32.089844 85.886719 31.996094 C 86.0625 31.847656 86.203125 31.847656 86.378906 31.988281 Z M 91.464844 32.0625 C 91.957031 32.109375 92.859375 32.15625 93.488281 32.15625 C 94.582031 32.15625 94.609375 32.164062 94.609375 32.382812 C 94.609375 32.804688 94.0625 33.113281 93.023438 33.28125 C 92.503906 33.367188 91.945312 33.46875 91.78125 33.507812 C 91.519531 33.5625 91.492188 33.535156 91.507812 33.234375 C 91.519531 32.953125 91.410156 32.820312 90.765625 32.382812 C 90.304688 32.042969 90.125 31.875 90.304688 31.914062 C 90.453125 31.941406 90.972656 32.007812 91.464844 32.0625 Z M 144.921875 32.0625 C 144.921875 32.203125 144.828125 32.25 144.554688 32.25 L 144.171875 32.242188 L 144.5 32.0625 C 144.894531 31.828125 144.921875 31.828125 144.921875 32.0625 Z M 67.71875 32.464844 C 67.867188 32.792969 67.8125 32.839844 67.347656 32.726562 C 67.085938 32.652344 66.992188 32.558594 66.992188 32.390625 C 66.992188 32.042969 67.539062 32.101562 67.71875 32.464844 Z M 72.007812 32.269531 C 71.722656 32.335938 71.570312 32.335938 71.460938 32.257812 C 71.351562 32.183594 71.460938 32.15625 71.859375 32.164062 C 72.390625 32.175781 72.390625 32.175781 72.007812 32.269531 Z M 101.867188 32.671875 C 102.5 32.757812 103.332031 32.878906 103.703125 32.953125 C 104.085938 33.019531 104.65625 33.132812 104.984375 33.1875 L 105.574219 33.289062 L 104.808594 33.789062 C 103.976562 34.3125 103.921875 34.40625 104.273438 34.640625 C 104.617188 34.875 105.410156 34.761719 106.804688 34.273438 L 107.992188 33.863281 L 109.414062 34.144531 L 108.609375 34.378906 C 107.40625 34.714844 106.242188 34.941406 105.382812 35.015625 L 104.632812 35.082031 L 103.757812 34.59375 C 102.402344 33.835938 101.023438 33.441406 98.574219 33.113281 L 97.960938 33.027344 L 98.367188 32.90625 C 98.984375 32.726562 99.953125 32.539062 100.367188 32.539062 C 100.570312 32.53125 101.242188 32.597656 101.867188 32.671875 Z M 130.074219 32.960938 C 130.238281 33.007812 130.25 33.054688 130.140625 33.207031 C 129.9375 33.46875 130.03125 33.488281 130.648438 33.320312 C 131.140625 33.1875 131.277344 33.1875 131.933594 33.308594 L 132.6875 33.449219 L 131.796875 33.460938 C 131.304688 33.46875 130.539062 33.507812 130.101562 33.5625 C 129.648438 33.609375 129.265625 33.636719 129.242188 33.617188 C 129.15625 33.5625 129.609375 32.90625 129.734375 32.90625 C 129.800781 32.90625 129.953125 32.933594 130.074219 32.960938 Z M 145.265625 34.03125 C 144.664062 34.171875 143.9375 34.359375 143.664062 34.445312 C 143.375 34.527344 143.144531 34.574219 143.144531 34.539062 C 143.144531 34.460938 145.058594 33.871094 145.46875 33.816406 C 146.34375 33.710938 146.261719 33.789062 145.265625 34.03125 Z M 126.75 34.132812 C 126.53125 34.191406 126.367188 34.191406 126.273438 34.125 C 126.179688 34.058594 126.289062 34.03125 126.617188 34.039062 C 127.054688 34.039062 127.066406 34.050781 126.75 34.132812 Z M 122.746094 34.585938 C 122.976562 35.089844 122.953125 35.230469 122.625 35.296875 C 122.28125 35.371094 122.320312 35.410156 122.117188 34.835938 C 121.980469 34.460938 121.980469 34.359375 122.117188 34.292969 C 122.445312 34.152344 122.59375 34.21875 122.746094 34.585938 Z M 139.316406 34.6875 C 139 34.847656 138.960938 34.847656 138.605469 34.707031 C 138.386719 34.621094 138.222656 34.527344 138.222656 34.5 C 138.222656 34.472656 138.539062 34.472656 138.933594 34.492188 L 139.644531 34.519531 Z M 136.007812 35.410156 C 136.089844 35.503906 136.1875 35.71875 136.242188 35.878906 C 136.308594 36.113281 136.28125 36.1875 136.144531 36.1875 C 135.789062 36.1875 135.5 35.953125 135.421875 35.597656 C 135.335938 35.289062 135.351562 35.25 135.609375 35.25 C 135.761719 35.25 135.9375 35.324219 136.007812 35.410156 Z M 105.957031 36.507812 C 105.957031 36.554688 104.304688 37.085938 103.878906 37.171875 C 103.714844 37.210938 103.933594 37.070312 104.382812 36.863281 C 104.835938 36.65625 105.367188 36.476562 105.585938 36.476562 C 105.792969 36.46875 105.957031 36.488281 105.957031 36.507812 Z M 136.253906 37.753906 C 136.210938 37.847656 136.117188 38.101562 136.035156 38.316406 C 135.925781 38.605469 135.773438 38.757812 135.488281 38.859375 C 135.269531 38.933594 135.0625 39 135.039062 39 C 135.007812 39 135.132812 38.71875 135.296875 38.371094 C 135.570312 37.800781 135.789062 37.621094 136.210938 37.601562 C 136.28125 37.59375 136.296875 37.667969 136.253906 37.753906 Z M 117.960938 38.492188 C 117.933594 38.578125 117.78125 38.679688 117.617188 38.726562 C 117.34375 38.792969 117.304688 38.773438 117.304688 38.578125 C 117.304688 38.390625 117.375 38.34375 117.660156 38.34375 C 117.90625 38.34375 118 38.390625 117.960938 38.492188 Z M 130.703125 41.363281 C 130.703125 41.550781 130.523438 41.691406 130.195312 41.757812 C 129.8125 41.839844 129.757812 41.625 130.101562 41.398438 C 130.359375 41.222656 130.703125 41.203125 130.703125 41.363281 Z M 122.625 45.414062 C 122.59375 45.429688 122.078125 45.5625 121.476562 45.703125 C 120.875 45.851562 119.671875 46.171875 118.808594 46.433594 C 116.414062 47.136719 116.28125 47.175781 116.347656 47.128906 C 116.390625 47.109375 116.921875 46.847656 117.550781 46.554688 C 119.546875 45.628906 120.40625 45.394531 121.804688 45.382812 C 122.28125 45.375 122.648438 45.394531 122.625 45.414062 Z M 114.078125 49.273438 C 114.421875 49.3125 114.707031 49.359375 114.707031 49.398438 C 114.707031 49.425781 114.1875 49.566406 113.570312 49.707031 C 112.957031 49.835938 111.371094 50.269531 110.058594 50.652344 C 107.980469 51.253906 106.382812 51.65625 106.011719 51.65625 C 105.957031 51.65625 106.421875 51.476562 107.0625 51.253906 C 107.695312 51.027344 108.648438 50.625 109.195312 50.363281 C 110.167969 49.875 111.601562 49.367188 112.246094 49.285156 C 112.792969 49.21875 113.394531 49.21875 114.078125 49.273438 Z M 105.234375 53.210938 C 105.09375 53.304688 101.40625 54.375 101.351562 54.335938 C 101.265625 54.28125 102.554688 53.746094 103.289062 53.53125 C 104.207031 53.257812 105.464844 53.0625 105.234375 53.210938 Z M 105.234375 53.210938 "/>
</g>
</svg>
