<?xml version="1.0" encoding="UTF-8"?>
<svg xmlns="http://www.w3.org/2000/svg" xmlns:xlink="http://www.w3.org/1999/xlink" width="160px" height="50px" viewBox="0 0 160 50" version="1.1">
<g id="surface1">
<path style=" stroke:none;fill-rule:nonzero;fill:rgb(0%,0%,0%);fill-opacity:1;" d="M 66.226562 0.0390625 C 60.898438 0.226562 55.785156 0.960938 51.835938 2.097656 C 48.066406 3.1875 45.988281 4.425781 45.550781 5.832031 C 45.03125 7.523438 45.734375 8.839844 47.714844 9.921875 C 49.445312 10.855469 52.59375 11.703125 57.160156 12.460938 C 63.273438 13.476562 70.089844 14.234375 82.5 15.289062 C 90.273438 15.945312 93.789062 16.292969 96.457031 16.664062 C 100.4375 17.21875 102.769531 17.859375 103.824219 18.691406 C 104.214844 19 104.214844 19.019531 104.214844 19.863281 C 104.1875 22.328125 101.898438 24.089844 96.90625 25.488281 C 94.109375 26.265625 90.878906 26.847656 87.183594 27.226562 L 85.875 27.359375 L 85.875 29.882812 L 86.3125 29.882812 C 87.027344 29.882812 90.078125 29.699219 91.863281 29.546875 C 96.304688 29.175781 100.816406 28.507812 104.566406 27.671875 C 106.113281 27.328125 109.023438 26.515625 110.246094 26.09375 C 114.449219 24.621094 116.976562 23.039062 117.933594 21.269531 C 118.3125 20.578125 118.339844 19.4375 118.003906 18.847656 C 116.542969 16.28125 110.5 14.609375 98.945312 13.574219 C 95.613281 13.277344 92.324219 13.074219 85.3125 12.734375 C 81.53125 12.550781 80.335938 12.480469 77.300781 12.261719 C 61.855469 11.15625 54.25 9.15625 54.238281 6.195312 C 54.238281 4.015625 58.582031 2.269531 64.960938 1.894531 C 66.3125 1.8125 69.375 1.8125 71.046875 1.894531 C 74.703125 2.074219 77.386719 2.488281 79.605469 3.214844 C 80.800781 3.613281 81.871094 4.242188 82.148438 4.707031 C 82.261719 4.902344 82.039062 4.992188 80.675781 5.292969 C 78.550781 5.761719 78.144531 5.957031 78.03125 6.503906 C 77.933594 7.074219 78.582031 7.691406 79.902344 8.265625 C 81.054688 8.765625 83.753906 9.761719 84.722656 10.046875 C 85.902344 10.390625 86.71875 10.519531 87.660156 10.515625 C 89.417969 10.503906 90.792969 9.988281 91.820312 8.945312 C 92.015625 8.742188 92.507812 8.25 92.902344 7.851562 C 94.082031 6.664062 94.125 6.3125 93.210938 5.765625 C 92.636719 5.421875 92.03125 5.25 90.78125 5.078125 C 90.132812 4.984375 89.542969 4.871094 89.332031 4.792969 C 89.136719 4.722656 88.6875 4.429688 88.320312 4.140625 C 87.238281 3.269531 86.3125 2.742188 84.835938 2.171875 C 81.980469 1.070312 78.101562 0.378906 73.269531 0.117188 C 71.523438 0.0234375 67.871094 -0.015625 66.226562 0.0390625 Z M 66.226562 0.0390625 "/>
<path style=" stroke:none;fill-rule:nonzero;fill:rgb(0%,0%,0%);fill-opacity:1;" d="M 0 17.824219 C 0 18 0.828125 18.390625 1.617188 18.582031 C 3.753906 19.109375 6.773438 19.4375 10.402344 19.53125 C 15.613281 19.664062 20.351562 20.050781 25.425781 20.761719 C 28.910156 21.246094 31.511719 21.71875 35.964844 22.6875 C 43.078125 24.230469 46.519531 24.875 51.160156 25.523438 C 56.808594 26.316406 62.515625 26.808594 68.9375 27.066406 C 70.710938 27.136719 72.003906 27.171875 75.375 27.25 L 76.457031 27.273438 L 76.457031 35.109375 L 77.511719 35.152344 C 78.652344 35.199219 82.320312 35.210938 83.050781 35.171875 L 83.484375 35.148438 L 83.484375 26.882812 L 84.230469 26.835938 C 86.550781 26.683594 89.683594 26.296875 91.59375 25.929688 C 94.871094 25.300781 97.019531 24.589844 98.945312 23.496094 C 100.941406 22.371094 101.898438 21.160156 101.898438 19.773438 C 101.898438 19.203125 101.730469 18.921875 101.179688 18.621094 C 100.730469 18.371094 99.832031 18.0625 99.042969 17.890625 L 98.339844 17.734375 L 0 17.734375 Z M 0 17.824219 "/>
<path style=" stroke:none;fill-rule:nonzero;fill:rgb(0%,0%,0%);fill-opacity:1;" d="M 119.71875 17.757812 C 119.664062 17.769531 119.691406 17.835938 119.761719 17.902344 C 119.832031 17.972656 120.027344 18.21875 120.195312 18.457031 C 120.464844 18.832031 120.507812 19.015625 120.519531 19.921875 C 120.519531 20.738281 120.464844 21.050781 120.265625 21.398438 C 119.804688 22.203125 118.890625 23.117188 117.90625 23.757812 C 117.695312 23.90625 117.554688 24.023438 117.597656 24.023438 C 117.722656 24.023438 119.421875 23.667969 123.164062 22.863281 C 128.601562 21.6875 130.878906 21.265625 134.519531 20.761719 C 139.59375 20.050781 144.328125 19.664062 149.542969 19.53125 C 153.167969 19.4375 156.191406 19.109375 158.328125 18.582031 C 159.113281 18.390625 159.945312 18 159.945312 17.824219 L 159.945312 17.734375 L 139.875 17.734375 C 128.828125 17.734375 119.761719 17.746094 119.71875 17.757812 Z M 119.71875 17.757812 "/>
<path style=" stroke:none;fill-rule:nonzero;fill:rgb(0%,0%,0%);fill-opacity:1;" d="M 72.355469 27.5625 C 65.382812 27.910156 58.960938 29.414062 56.65625 31.226562 C 55.753906 31.929688 55.613281 32.636719 56.164062 33.59375 C 57.148438 35.328125 61.378906 36.585938 69.007812 37.417969 C 73.210938 37.878906 77.0625 38.085938 81.308594 38.085938 C 91.257812 38.085938 101.785156 36.765625 106.140625 34.964844 C 107.714844 34.320312 108.292969 33.785156 108.195312 33.085938 C 108.054688 32.191406 106.816406 31.5625 104.414062 31.152344 C 103.527344 31 101.238281 30.777344 99.648438 30.6875 C 96.246094 30.496094 92.648438 30.597656 86.410156 31.058594 L 85.875 31.097656 L 85.875 31.996094 C 85.875 32.722656 85.917969 32.894531 86.058594 32.878906 C 86.816406 32.796875 88.839844 32.71875 90.160156 32.71875 C 92.085938 32.714844 92.902344 32.773438 93.617188 32.972656 C 94.292969 33.160156 94.519531 33.367188 94.519531 33.808594 C 94.503906 34.199219 94.195312 34.445312 93.339844 34.746094 C 91.976562 35.214844 89.023438 35.59375 85.3125 35.769531 C 83.625 35.851562 78.441406 35.863281 76.878906 35.789062 C 73.058594 35.605469 70.5 35.296875 68.65625 34.785156 C 66.84375 34.285156 66.28125 33.773438 66.589844 32.902344 C 66.886719 32.0625 67.632812 31.523438 69.09375 31.09375 C 70.132812 30.789062 71.230469 30.601562 72.859375 30.445312 L 74.070312 30.332031 L 74.070312 27.5 L 73.757812 27.503906 C 73.578125 27.503906 72.957031 27.53125 72.355469 27.5625 Z M 72.355469 27.5625 "/>
<path style=" stroke:none;fill-rule:nonzero;fill:rgb(0%,0%,0%);fill-opacity:1;" d="M 72.4375 32.648438 C 71.652344 32.792969 70.511719 33.023438 69.921875 33.160156 L 68.839844 33.40625 L 68.925781 33.585938 C 69.050781 33.851562 69.527344 34.09375 70.402344 34.339844 C 71.59375 34.671875 71.695312 34.679688 72.410156 34.5 C 72.746094 34.417969 73.253906 34.304688 73.550781 34.246094 L 74.070312 34.136719 L 74.070312 33.257812 C 74.070312 32.777344 74.027344 32.382812 73.96875 32.382812 C 73.898438 32.386719 73.210938 32.503906 72.4375 32.648438 Z M 72.4375 32.648438 "/>
<path style=" stroke:none;fill-rule:nonzero;fill:rgb(0%,0%,0%);fill-opacity:1;" d="M 61.292969 37.316406 C 60.925781 37.824219 60.800781 38.28125 60.800781 39.003906 C 60.800781 39.738281 60.828125 39.804688 61.179688 40.128906 C 62.769531 41.566406 67.140625 42.605469 74.28125 43.238281 C 77.820312 43.554688 80.5625 43.667969 92.269531 43.984375 C 96.289062 44.09375 96.695312 44.113281 97.484375 44.214844 C 97.960938 44.277344 98.59375 44.386719 98.890625 44.464844 C 99.902344 44.714844 100.492188 44.804688 101.136719 44.804688 C 101.601562 44.804688 101.785156 44.785156 101.953125 44.71875 C 102.25 44.601562 102.234375 44.5 101.871094 44.230469 C 101.136719 43.679688 98.1875 43.132812 94.378906 42.839844 C 91.945312 42.652344 90.710938 42.59375 83.0625 42.300781 C 78.792969 42.140625 76.246094 41.894531 74.082031 41.425781 C 71.019531 40.769531 69.429688 39.851562 68.898438 38.425781 L 68.796875 38.15625 L 67.574219 38.027344 C 65.917969 37.847656 63.976562 37.574219 62.585938 37.324219 L 61.433594 37.113281 Z M 61.292969 37.316406 "/>
<path style=" stroke:none;fill-rule:nonzero;fill:rgb(0%,0%,0%);fill-opacity:1;" d="M 76.457031 39.851562 L 76.457031 41.121094 L 77.582031 41.265625 C 78.917969 41.433594 82.304688 41.675781 83.386719 41.679688 C 83.445312 41.679688 83.484375 40.992188 83.484375 40.15625 L 83.484375 38.632812 L 80.507812 38.632812 C 78.863281 38.632812 77.273438 38.621094 76.992188 38.609375 L 76.457031 38.582031 Z M 76.457031 39.851562 "/>
<path style=" stroke:none;fill-rule:nonzero;fill:rgb(0%,0%,0%);fill-opacity:1;" d="M 76.429688 45.222656 C 76.375 46.460938 76.359375 46.492188 75.460938 46.777344 C 74.222656 47.167969 72.101562 47.40625 67.605469 47.65625 C 64.566406 47.828125 62.839844 47.953125 61.277344 48.113281 C 59.914062 48.253906 58.230469 48.503906 57.90625 48.609375 C 57.441406 48.769531 55.136719 48.878906 49.824219 49.003906 C 46.171875 49.089844 44.527344 49.199219 42.402344 49.503906 C 41.265625 49.664062 40.476562 49.847656 40.476562 49.945312 C 40.476562 49.992188 45.902344 50 79.972656 50 C 114.039062 50 119.464844 49.992188 119.464844 49.945312 C 119.464844 49.789062 117.414062 49.433594 115.53125 49.261719 C 113.871094 49.113281 112.832031 49.066406 109.417969 48.984375 C 103.949219 48.851562 102.824219 48.789062 101.8125 48.5625 C 100.210938 48.207031 97.429688 47.941406 92.339844 47.65625 C 87.84375 47.40625 85.71875 47.167969 84.484375 46.777344 C 83.597656 46.496094 83.570312 46.449219 83.515625 45.359375 C 83.472656 44.558594 83.429688 44.375 83.261719 44.375 C 82.796875 44.375 78.664062 44.214844 77.75 44.160156 C 77.1875 44.128906 76.667969 44.101562 76.597656 44.101562 C 76.527344 44.101562 76.457031 44.605469 76.429688 45.222656 Z M 76.429688 45.222656 "/>
</g>
</svg>
